<svg width="56" height="53" viewBox="0 0 56 53" fill="none" xmlns="http://www.w3.org/2000/svg">
<path d="M22.3004 52.0215C22.3004 51.9665 22.3453 51.9216 22.4003 51.9216C22.4553 51.9216 22.5002 51.9665 22.5002 52.0215C22.5002 52.0764 22.4553 52.1214 22.4003 52.1214C22.3453 52.1214 22.3004 52.0764 22.3004 52.0215ZM24.2986 52.0215C24.2986 51.9665 24.3435 51.9216 24.3985 51.9216C24.4534 51.9216 24.4984 51.9665 24.4984 52.0215C24.4984 52.0764 24.4534 52.1214 24.3985 52.1214C24.3435 52.1214 24.2986 52.0764 24.2986 52.0215ZM21.1681 51.7883C21.2413 51.7151 21.3612 51.7151 21.4345 51.7883C21.5078 51.8616 21.4478 51.9216 21.3013 51.9216C21.1548 51.9216 21.0948 51.8616 21.1681 51.7883ZM26.9961 51.7217C27.064 51.6118 27.1592 51.5219 27.2077 51.5219C27.2562 51.5219 27.2958 51.6118 27.2958 51.7217C27.2958 51.8316 27.2006 51.9215 27.0842 51.9215C26.9678 51.9215 26.9282 51.8316 26.9961 51.7217ZM28.3778 51.3276C28.7683 50.7185 28.7769 50.5228 28.4135 50.5228C28.2336 50.5228 28.1691 50.3831 28.2341 50.1342C28.3197 49.8072 28.3958 49.7831 28.715 49.9825C29.2242 50.3005 29.1928 50.5933 28.5777 51.261C28.1251 51.7522 28.1004 51.7605 28.3779 51.3276L28.3778 51.3276ZM25.2976 51.422C25.2976 51.367 25.3426 51.3221 25.3975 51.3221C25.4525 51.3221 25.4975 51.367 25.4975 51.422C25.4975 51.477 25.4525 51.5219 25.3975 51.5219C25.3426 51.5219 25.2976 51.477 25.2976 51.422ZM29.0942 51.2222C29.0942 51.1672 29.1391 51.1223 29.1941 51.1223C29.2491 51.1223 29.294 51.1672 29.294 51.2222C29.294 51.2772 29.249 51.3221 29.1941 51.3221C29.1391 51.3221 29.0942 51.2771 29.0942 51.2222ZM29.7837 51.1064C29.5279 50.6925 29.563 49.3401 29.8321 49.2368C29.9757 49.1817 30.0932 48.8641 30.0932 48.5309C30.0932 48.1978 30.1831 47.9252 30.293 47.9252C30.4029 47.9252 30.4929 47.7505 30.4929 47.5369C30.4929 47.3233 30.6793 47.018 30.9072 46.8584C31.1687 46.6752 31.2418 46.519 31.1054 46.4347C30.9866 46.3613 30.7488 46.4415 30.5769 46.6136C30.4051 46.7855 30.2228 46.9261 30.1718 46.9261C30.0272 46.9261 30.471 46.1639 30.697 46.0243C30.9291 45.8808 30.7671 45.5274 30.4693 45.5274C30.3594 45.5274 30.325 45.6173 30.3929 45.7272C30.4608 45.8371 30.3762 45.927 30.2049 45.927C29.856 45.927 29.7866 45.617 30.0932 45.4275C30.2031 45.3596 30.293 44.9226 30.293 44.4566C30.293 43.9905 30.3973 43.5048 30.5248 43.3773C30.6523 43.2499 30.7756 42.8947 30.7987 42.5881C30.8219 42.2815 31.041 41.0865 31.2857 39.9325C31.6305 38.3065 31.7366 37.1039 31.7575 34.5874C31.7745 32.5377 31.8595 31.3392 31.9879 31.3373C32.0998 31.3355 32.0721 31.2587 31.9263 31.1663C31.7806 31.0739 31.6114 30.6257 31.5504 30.1703C31.4491 29.4152 31.4783 29.3422 31.8819 29.3422C32.1482 29.3422 32.2906 29.2427 32.2393 29.0924C32.1925 28.9551 31.9609 28.8707 31.7247 28.9049C31.4029 28.9516 31.3256 28.8879 31.4165 28.6512C31.4929 28.452 31.7309 28.3551 32.06 28.3891C32.5954 28.4444 32.819 27.9919 32.3994 27.702C32.2638 27.6083 32.2784 27.4767 32.4427 27.3124C32.7768 26.9783 32.7555 26.7446 32.3911 26.7446C32.2262 26.7446 32.0914 26.645 32.0914 26.5234C32.0914 26.4017 32.2262 26.3539 32.3911 26.4172C32.7509 26.5553 32.7839 26.3181 32.451 25.9853C32.2645 25.7988 32.2677 25.7455 32.4653 25.7455C32.6051 25.7455 32.8543 25.8804 33.0191 26.0452C33.4325 26.4586 33.6899 26.4202 33.6899 25.9453C33.6899 25.7233 33.5567 25.5457 33.3902 25.5457C33.2254 25.5457 33.0905 25.4654 33.0905 25.3672C33.0905 25.1037 33.6385 24.9403 34.0396 25.0842C34.2437 25.1575 34.3202 25.1342 34.2232 25.0284C33.9981 24.7827 32.4275 24.7967 32.2443 25.0461C32.1586 25.1628 32.0962 25.1185 32.0944 24.9396C32.0924 24.7 31.6345 24.5789 29.9952 24.3842C28.0983 24.1589 27.8497 24.1676 27.3805 24.475C26.9395 24.7639 26.8356 24.7723 26.6854 24.5308C26.5409 24.2986 26.4352 24.2924 26.1057 24.4966C25.524 24.8572 25.0696 24.8102 25.139 24.3967C25.2144 23.9475 24.5771 23.8664 22.8205 24.1017C22.094 24.199 21.4526 24.2318 21.3953 24.1744C21.0852 23.8643 20.5401 24.0042 20.339 24.4456C20.1621 24.834 20.1803 24.9956 20.4289 25.2442C20.6067 25.4221 20.6852 25.7004 20.6116 25.8923C20.529 26.1075 20.6307 26.3405 20.8942 26.5392C21.1207 26.71 21.3448 27.0512 21.3922 27.2975C21.4396 27.5437 21.5362 27.8387 21.6069 27.953C21.6775 28.0673 21.6152 28.3086 21.4683 28.4892C21.2407 28.7692 21.2469 28.8005 21.5106 28.702C22.3448 28.3904 23.0357 35.4327 22.6221 40.0324C22.4817 41.5945 22.1761 43.8289 22.1028 43.8289C22.0858 43.8289 22.0288 44.1866 21.976 44.6238C21.9232 45.061 21.7477 45.565 21.5858 45.7439C21.424 45.9227 21.3378 46.1944 21.3942 46.3477C21.4507 46.501 21.3783 46.8512 21.2333 47.1259C21.0041 47.5602 21.0192 47.6973 21.3488 48.175C21.5775 48.5063 21.9112 48.7245 22.1895 48.7245C22.4433 48.7245 22.7726 48.871 22.9213 49.0502C23.1653 49.3442 23.1239 49.3616 22.4962 49.2289C21.9615 49.116 21.8531 49.137 22.0274 49.3198C22.1521 49.4506 22.4668 49.5274 22.7268 49.4906C23.2023 49.4232 23.2765 49.1475 23.0004 48.4747C22.8906 48.2069 22.9556 48.125 23.278 48.125C23.5095 48.125 23.699 48.2149 23.699 48.3248C23.699 48.4347 23.9013 48.5351 24.1486 48.5478C24.5016 48.566 24.521 48.591 24.2389 48.6642C24.0413 48.7155 23.749 48.6491 23.5895 48.5167C23.3561 48.323 23.2994 48.3393 23.2994 48.6001C23.2994 48.7784 23.3932 48.9243 23.5079 48.9243C23.6226 48.9243 23.6901 49.0816 23.6578 49.274C23.6146 49.5312 23.718 49.6111 24.0487 49.576C24.2959 49.5499 24.4983 49.6173 24.4983 49.7259C24.4983 49.8345 24.6384 49.9234 24.8098 49.9234C24.9811 49.9234 25.0657 50.0133 24.9978 50.1232C24.9251 50.2408 25.1462 50.3243 25.5355 50.3261C26.0393 50.3281 26.1254 50.3759 25.897 50.5255C25.7321 50.6335 25.3585 50.6719 25.0668 50.6107C24.775 50.5495 24.4799 50.5906 24.411 50.7022C24.2713 50.9282 23.675 50.7659 23.4601 50.4433C23.3836 50.3285 23.2584 50.2973 23.1818 50.3739C23.1052 50.4505 23.1678 50.6727 23.3208 50.8677C23.5738 51.1901 23.5674 51.1973 23.2494 50.948C23.0348 50.7797 22.8032 50.7411 22.6499 50.8481C22.5126 50.9439 21.2249 51.0224 19.7884 51.0224C17.5674 51.0224 17.1242 50.9701 16.8268 50.6727C16.3993 50.2454 16.1617 50.2084 16.5056 50.6227C16.7093 50.8682 16.6956 50.9224 16.4301 50.9224C16.2518 50.9224 16.1054 50.855 16.1048 50.7726C16.1043 50.6902 15.7419 50.6091 15.2997 50.5924C14.8575 50.5757 14.3859 50.4792 14.2518 50.378C14.1176 50.2767 13.6931 50.1762 13.3085 50.1546C12.9238 50.133 12.1595 49.9706 11.61 49.7936C10.419 49.41 7.3635 47.9672 7.2074 47.7146C7.1469 47.6167 6.74147 47.4299 6.30649 47.2996C5.8715 47.1693 5.5156 46.9817 5.5156 46.8827C5.5156 46.7837 5.42552 46.7584 5.31541 46.8264C5.20531 46.8945 5.0277 46.7199 4.92072 46.4386C4.81375 46.1572 4.63349 45.927 4.52014 45.927C4.4068 45.927 4.1186 45.7022 3.87971 45.4275C3.64082 45.1527 3.34157 44.9279 3.2147 44.9279C2.94321 44.9279 1.91889 43.8236 1.91889 43.5309C1.91889 43.4201 1.81849 43.3294 1.69577 43.3294C1.57306 43.3294 1.51816 43.1554 1.57378 42.9427C1.63035 42.7262 1.55928 42.5116 1.41237 42.4552C1.17223 42.363 0.739551 41.5665 0.445107 40.6745C0.38031 40.4781 0.274912 39.6239 0.210946 38.7762C0.146979 37.9285 0.0594347 37.1254 0.0164101 36.9916C-0.0266383 36.8577 0.0179101 36.6987 0.116113 36.6382C0.213975 36.5778 0.243367 36.216 0.18144 35.8343C0.118076 35.4439 0.166786 35.0222 0.292766 34.8704C0.415941 34.722 0.468542 34.5524 0.409658 34.4935C0.274558 34.3584 1.46426 31.7101 1.78244 31.4377C1.91245 31.3264 2.1739 30.9667 2.36344 30.6384C2.55297 30.3101 2.80024 30.064 2.91293 30.0915C3.02562 30.119 3.11781 30.0485 3.11781 29.9348C3.11781 29.334 7.34297 25.6613 8.91251 24.8977C9.18726 24.764 9.45702 24.6078 9.51197 24.5506C9.91429 24.1319 14.7351 22.086 15.3067 22.0914C15.4715 22.093 15.7148 22.0089 15.8474 21.9045C15.98 21.8001 16.1862 21.7752 16.3057 21.849C16.4253 21.9229 16.6315 21.8973 16.7641 21.7922C17.0466 21.5682 19.9253 20.9977 21.4871 20.8562C22.0839 20.8021 22.6473 20.6827 22.7391 20.5909C22.8309 20.4991 22.4096 19.9353 21.8028 19.3381C20.1721 17.7331 20.1023 17.6488 20.1023 17.2864C20.1023 17.1033 19.9796 16.9535 19.8297 16.9535C19.5353 16.9535 18.5012 15.5789 18.4299 15.0928C18.406 14.9294 18.2898 14.6743 18.1717 14.5259C17.3687 13.5156 17.0416 9.6978 17.6023 7.87866C17.8896 6.94681 18.9351 5.0958 19.4176 4.66471C19.5407 4.55481 19.8423 4.12771 20.0879 3.71558C20.3335 3.30346 20.597 2.96627 20.6735 2.96627C20.7955 2.96627 21.3144 2.55353 22.5492 1.47445C23.0781 1.01222 24.3492 0.36864 24.7333 0.36864C24.9207 0.36864 25.1276 0.282152 25.1929 0.176445C25.3623 -0.0975999 27.4607 -0.0367067 27.7518 0.250682C27.8856 0.3828 28.1653 0.55542 28.3733 0.634279C28.5814 0.713139 28.6976 0.83167 28.6316 0.897675C28.5656 0.963681 28.6824 1.16388 28.8912 1.34256C29.2485 1.6484 30.4837 3.91427 30.5733 4.42836C30.5959 4.55834 30.7171 4.9794 30.8426 5.36406C31.1076 6.17691 31.2026 6.77094 31.4812 9.3604C31.8287 12.5905 31.8311 13.5364 31.4918 13.6286C31.2304 13.6996 31.2311 13.713 31.4971 13.7332C31.6649 13.746 32.0976 13.4866 32.4585 13.1569C32.8195 12.8272 33.1992 12.5575 33.3023 12.5575C33.4055 12.5575 33.4898 12.4226 33.4898 12.2578C33.4898 12.0929 33.5733 11.958 33.6754 11.958C33.7775 11.958 34.1947 11.6433 34.6025 11.2587C35.0104 10.874 35.4524 10.5593 35.5849 10.5593C35.7173 10.5593 35.9827 10.3858 36.1745 10.1738C36.3664 9.9618 36.8524 9.63445 37.2546 9.44636C37.6567 9.25828 38.2105 8.94969 38.4853 8.76059C38.76 8.5715 39.3445 8.30267 39.7841 8.16319C40.2237 8.02372 40.6733 7.84077 40.7832 7.75665C41.0401 7.55996 43.621 7.16241 44.641 7.16241C45.1495 7.16241 45.6241 7.31907 45.9919 7.60832C46.3036 7.85358 46.4903 7.94349 46.4066 7.80814C46.3121 7.65524 46.3674 7.56205 46.5526 7.56205C46.7165 7.56205 46.9077 7.74188 46.9775 7.96169C47.0473 8.18148 47.1925 8.36132 47.3002 8.36132C47.848 8.36132 49.8166 11.5007 49.6086 12.0426C49.5566 12.1783 49.5976 12.7317 49.6999 13.2726C49.8765 14.2065 49.858 14.2797 49.3309 14.7283C49.0035 15.0069 48.9193 15.1529 49.1255 15.0842C49.3795 14.9997 49.4752 15.0755 49.4752 15.3612C49.4752 15.5775 49.4066 15.7546 49.3228 15.7546C49.2389 15.7546 49.0783 15.9569 48.9658 16.2041C48.8533 16.4514 48.6553 16.6323 48.5259 16.6062C48.3965 16.58 48.3384 16.6829 48.3967 16.8349C48.4633 17.0084 48.2934 17.1874 47.9399 17.3162C47.6304 17.4291 47.5034 17.5285 47.6579 17.5371C47.8747 17.5493 47.8563 17.6438 47.5769 17.9525C47.1308 18.4455 46.8456 18.4711 47.0212 18.0025C47.1356 17.6972 47.1098 17.6874 46.8173 17.9253C46.6331 18.0751 46.5378 18.2874 46.6055 18.397C46.7569 18.6419 45.7028 19.534 45.2505 19.5439C45.0699 19.5477 44.8772 19.6682 44.8223 19.8114C44.7674 19.9545 44.2857 20.3008 43.7519 20.5808C43.2181 20.8609 42.3361 21.3413 41.7919 21.6483C41.1812 21.9929 40.7742 22.1218 40.7286 21.9851C40.6344 21.7026 39.884 22.1381 39.884 22.4752C39.884 22.7766 39.2127 23.0322 39.1236 22.7648C39.0596 22.5729 38.1356 23.0331 37.8794 23.3843C37.8209 23.4646 37.4723 23.6566 37.1048 23.8111C36.6855 23.9874 36.5237 24.1459 36.6704 24.2366C36.799 24.3161 37.0129 24.2909 37.1458 24.1806C37.3105 24.044 37.5464 24.0681 37.8864 24.2562C38.1608 24.4081 38.5082 24.5355 38.6583 24.5394C38.8084 24.5432 39.36 24.8612 39.884 25.2459C40.408 25.6305 40.937 25.9452 41.0597 25.9452C41.1823 25.9452 41.2827 26.0351 41.2827 26.145C41.2827 26.2549 41.2153 26.3449 41.1328 26.345C41.0504 26.3451 40.97 26.5699 40.9542 26.8446C40.9383 27.1192 40.9877 27.344 41.0641 27.344C41.3378 27.344 41.6491 26.8905 41.551 26.6348C41.4049 26.2539 42.1759 26.4961 42.5995 26.9642C42.9702 27.3738 42.7183 27.5007 42.3217 27.1042C42.1352 26.9177 42.0287 26.9177 41.8422 27.1042C41.6557 27.2907 41.6727 27.344 41.9188 27.344C42.0928 27.344 42.2967 27.5463 42.3718 27.7935C42.4487 28.0465 42.552 28.1388 42.6079 28.0046C42.7429 27.6805 43.2657 27.9058 43.9456 28.5812C44.2563 28.8898 44.6834 29.1423 44.8948 29.1423C45.3053 29.1423 45.4115 29.4365 45.076 29.6439C44.813 29.8064 45.0447 30.1862 45.3455 30.0859C45.5594 30.0146 46.0783 30.3876 46.0783 30.6128C46.0783 30.6679 45.876 30.752 45.6287 30.7996C45.1791 30.8862 45.1791 30.8862 45.643 30.9135C46.143 30.9427 46.3609 31.123 47.4007 32.3675C48.1417 33.2545 48.2329 33.5383 47.7768 33.5383C47.6119 33.5383 47.4771 33.4484 47.4771 33.3385C47.4771 33.2286 47.3917 33.1386 47.2873 33.1386C47.183 33.1386 47.2912 33.5008 47.5271 33.9434C47.9392 34.7154 47.966 34.7307 48.186 34.3196C48.3584 33.9975 48.4422 33.961 48.5234 34.1726C48.5829 34.3275 48.5066 34.625 48.354 34.8337C47.9645 35.3664 48.0087 35.5849 48.4761 35.4366C48.8844 35.307 49.0373 35.6128 48.676 35.8362C48.016 36.2441 48.6914 36.346 51.4234 36.2508C54.8037 36.1329 55.947 36.2447 55.7811 36.6772C55.7205 36.835 55.7668 37.1432 55.884 37.3621C56.0387 37.6512 56.0318 37.8385 55.8588 38.0469C55.673 38.2708 55.6809 38.407 55.8948 38.6663C56.1483 38.9735 56.0404 38.9877 54.4706 38.8538C50.3555 38.5028 48.6788 38.7973 49.0017 39.8145C49.1114 40.1602 49.085 40.189 48.8429 39.9881C48.6096 39.7945 48.4832 39.828 48.2003 40.1585C47.7662 40.6655 47.8966 40.842 48.4761 40.5319C48.7147 40.4042 48.9545 40.3443 49.009 40.3987C49.0634 40.4532 48.7868 40.6502 48.3942 40.8365C47.6564 41.1866 47.5961 41.6469 48.3181 41.4178C49.0274 41.1927 48.4995 41.7399 47.6332 42.1277C46.8247 42.4897 46.895 42.8618 47.7286 42.6325C48.164 42.5128 48.1656 42.5179 47.7886 42.8194C47.5752 42.99 47.238 43.1295 47.0392 43.1295C46.8405 43.1295 46.6778 43.2674 46.6778 43.436C46.6778 43.7765 45.5826 44.9279 45.2587 44.9279C45.1452 44.9279 45.107 45.1001 45.1738 45.3107C45.3171 45.7621 44.9737 46.0613 44.808 45.6294C44.7457 45.4671 44.568 45.3829 44.413 45.4424C44.2273 45.5137 44.0979 45.3762 44.0335 45.0394C43.9674 44.6935 44.0237 44.5282 44.2078 44.5282C44.3574 44.5282 44.4798 44.4313 44.4798 44.3128C44.4798 44.1861 44.7806 44.1244 45.2103 44.1629C45.7012 44.207 45.9718 44.1375 46.0354 43.9509C46.0886 43.7952 46.04 43.7292 45.9242 43.8006C45.7968 43.8793 45.7257 43.6649 45.7378 43.2383C45.754 42.6681 45.8284 42.5557 46.1676 42.5893C46.4829 42.6205 46.5779 42.5143 46.5779 42.1304C46.5779 41.8557 46.7315 41.4139 46.9192 41.1487C47.107 40.8835 47.2141 40.5913 47.1572 40.4993C47.1003 40.4073 47.1354 40.3321 47.2351 40.3321C47.3897 40.3321 47.4471 40.0175 47.5089 38.8334C47.5149 38.7235 47.4676 38.0802 47.4045 37.4037C47.3138 36.4306 47.3511 36.1503 47.5833 36.0612C47.9961 35.9028 47.9501 35.5066 47.527 35.5777C47.2605 35.6224 47.1856 35.5102 47.2123 35.1063C47.2369 34.7332 47.1333 34.5463 46.8626 34.4756C46.4716 34.3733 46.3124 33.7381 46.6778 33.7381C46.7877 33.7381 46.8776 33.6032 46.8776 33.4384C46.8776 33.2735 46.7877 33.1386 46.6778 33.1386C46.5679 33.1386 46.478 33.2286 46.478 33.3385C46.478 33.8073 46.0807 33.478 45.7546 32.739C45.5607 32.2994 45.3197 31.9398 45.2192 31.9398C45.1187 31.9398 45.0921 31.7949 45.16 31.6178C45.2484 31.3874 45.1977 31.3288 44.9816 31.4117C44.7929 31.4841 44.6796 31.4123 44.6796 31.2206C44.6796 31.0047 44.5612 30.9513 44.28 31.0406C44.0155 31.1245 43.8803 31.0764 43.8803 30.8986C43.8803 30.7508 43.7005 30.4759 43.4807 30.2877C43.2609 30.0995 43.081 29.8097 43.081 29.6438C43.081 29.4495 42.8856 29.3399 42.5316 29.3358C41.7706 29.327 41.2395 28.89 41.4165 28.4184C41.5383 28.0941 41.5139 28.0786 41.2363 28.3042C40.9707 28.52 40.8867 28.5164 40.7493 28.2834C40.5643 27.9694 39.6842 27.4552 39.6842 27.6611C39.6842 27.7334 39.5503 27.6815 39.3866 27.5456C39.223 27.4098 39.147 27.2051 39.2177 27.0906C39.2955 26.9647 39.2485 26.943 39.0986 27.0357C38.7722 27.2374 37.4906 26.54 37.4704 26.1496C37.4599 25.9466 37.4212 25.9279 37.3544 26.0935C37.2803 26.2767 37.1509 26.2865 36.8598 26.1307C36.5102 25.9436 36.0209 25.8424 35.1073 25.7682C34.8818 25.75 34.8916 25.6736 35.1573 25.38C35.3391 25.1791 35.488 24.9543 35.488 24.8805C35.488 24.6129 35.0767 24.7554 34.751 25.1358C34.5676 25.3499 34.3431 25.4791 34.252 25.4228C33.9366 25.2279 33.8422 25.9616 34.1388 26.3024C34.3027 26.4906 34.3912 26.7713 34.3356 26.9262C34.2647 27.1238 34.3353 27.1692 34.5719 27.0784C34.7892 26.995 34.8611 27.0269 34.7739 27.1679C34.6816 27.3174 34.7887 27.3392 35.1117 27.2367C35.5237 27.1059 35.5515 27.1266 35.3268 27.3973C35.1343 27.6293 35.1277 27.7443 35.3008 27.8513C35.4283 27.9302 35.6077 27.8732 35.6994 27.7249C35.8319 27.5104 35.8939 27.5276 36.0018 27.8088C36.0895 28.0372 36.0053 28.2705 35.7628 28.4674C35.5567 28.6351 35.5004 28.7154 35.6378 28.6458C35.7789 28.5744 35.8876 28.6405 35.8876 28.7987C35.8876 28.9524 36.1124 29.1806 36.3871 29.3058C36.6619 29.431 36.8867 29.6657 36.8867 29.8275C36.8867 29.9892 37.044 30.2132 37.2363 30.3252C37.5486 30.5071 37.538 30.5296 37.1364 30.535C36.8892 30.538 36.6869 30.6407 36.6869 30.7625C36.6869 30.899 36.8786 30.9359 37.1864 30.8586C37.896 30.6806 37.8209 31.1142 37.0986 31.366C36.7152 31.4997 36.5492 31.6695 36.6205 31.8552C36.752 32.1979 37.3073 32.2398 37.2363 31.9017C37.2088 31.7709 37.3438 31.6294 37.5361 31.5873C37.7533 31.5398 37.8857 31.6299 37.8857 31.8252C37.8857 31.9981 37.7883 32.1396 37.6693 32.1396C37.5502 32.1396 37.494 32.252 37.5444 32.3894C37.5948 32.5268 37.7317 32.6185 37.8486 32.5933C38.155 32.5271 38.3758 33.359 38.0975 33.531C37.9321 33.6332 37.9543 33.7461 38.176 33.9301C38.5471 34.2381 38.5855 35.0631 38.2355 35.2044C38.0862 35.2645 38.1265 35.3115 38.3354 35.3209C38.5501 35.3306 38.685 35.4955 38.685 35.7481C38.685 35.9744 38.6013 36.1078 38.499 36.0446C38.3967 35.9814 38.2561 36.0218 38.1865 36.1344C38.1168 36.247 38.223 36.4058 38.4224 36.4873C38.8726 36.6713 38.9928 37.1432 38.6456 37.3634C38.446 37.4901 38.4435 37.5293 38.6351 37.5316C38.7927 37.534 38.8848 37.8294 38.8848 38.334C38.8848 38.8224 38.7916 39.1332 38.645 39.1332C38.4585 39.1332 38.4585 39.1865 38.645 39.373C38.917 39.6449 38.9768 41.7308 38.7127 41.7308C38.618 41.7308 38.5833 41.9544 38.6356 42.2276C38.7718 42.9404 38.5232 44.062 38.1452 44.4401C37.8926 44.6927 37.8768 44.7989 38.0738 44.9206C38.2689 45.0413 38.2742 45.1748 38.0969 45.5061C37.9706 45.7421 37.9117 46.0072 37.966 46.0951C38.0203 46.183 37.8909 46.541 37.6783 46.8907C37.2917 47.5263 37.2917 47.5263 37.8777 47.476C38.2 47.4483 38.4791 47.5156 38.4979 47.6254C38.5167 47.7353 38.2624 47.8211 37.9329 47.8161C37.4057 47.808 37.3607 47.8499 37.5579 48.1658C37.8023 48.5571 38.0856 48.6424 38.0856 48.3248C38.0856 48.2149 38.1935 48.125 38.3253 48.125C38.5118 48.125 38.5118 48.1783 38.3253 48.3648C37.9583 48.7318 38.0397 48.9657 38.4852 48.8244C38.9552 48.6752 38.9994 48.8382 38.5978 49.2398C38.4093 49.4283 38.2664 49.4549 38.1814 49.3173C37.9983 49.0211 37.2498 49.2878 36.8411 49.7948C36.6513 50.0303 36.4939 50.1107 36.4915 49.9733C36.4894 49.8359 36.3875 49.7235 36.2658 49.7235C36.1442 49.7235 36.0964 49.8584 36.1596 50.0233C36.2427 50.2398 36.1378 50.323 35.7814 50.323C35.5101 50.323 35.2881 50.4182 35.2881 50.5346C35.2881 50.651 35.1976 50.6902 35.0869 50.6218C34.9762 50.5534 34.8369 50.6248 34.7773 50.7799C34.7171 50.9367 34.4287 51.0515 34.1293 51.038C33.8325 51.0247 33.4773 51.0941 33.3399 51.1923C33.1845 51.3035 32.9737 51.2744 32.7819 51.1152C32.5446 50.9182 32.4194 50.9138 32.2372 51.096C32.0551 51.2781 31.9202 51.2279 31.6507 50.8777C31.3006 50.4229 31.3006 50.4229 31.2962 50.8724C31.2924 51.2507 31.1827 51.322 30.6042 51.322C30.226 51.322 29.8566 51.225 29.7833 51.1063L29.7837 51.1064ZM21.698 50.0909C21.8768 50.0313 21.9038 49.9488 21.7713 49.867C21.526 49.7154 20.6987 50.4264 20.7085 50.7804C20.7124 50.9135 20.8726 50.834 21.0651 50.6038C21.2576 50.3735 21.5424 50.1427 21.698 50.0909H21.698ZM18.0043 50.5228C17.9364 50.4129 17.7459 50.323 17.5811 50.323C17.4162 50.323 17.3369 50.4129 17.4049 50.5228C17.4727 50.6327 17.6632 50.7226 17.8281 50.7226C17.9929 50.7226 18.0722 50.6327 18.0043 50.5228ZM32.2246 50.3896C32.1514 50.3163 32.0315 50.3163 31.9582 50.3896C31.885 50.4629 31.945 50.5228 32.0914 50.5228C32.2379 50.5228 32.2979 50.4629 32.2246 50.3896ZM19.8027 50.1232C19.8706 50.0133 19.8309 49.9234 19.7145 49.9234C19.5982 49.9234 19.5029 50.0133 19.5029 50.1232C19.5029 50.2331 19.5426 50.323 19.591 50.323C19.6395 50.323 19.7347 50.2331 19.8027 50.1232ZM24.4984 50.1232C24.4984 50.0133 24.4085 49.9234 24.2986 49.9234C24.1886 49.9234 24.0987 50.0133 24.0987 50.1232C24.0987 50.2331 24.1886 50.323 24.2986 50.323C24.4085 50.323 24.4984 50.2331 24.4984 50.1232ZM15.5066 50.0233C15.5066 49.9683 15.4616 49.9234 15.4067 49.9234C15.3517 49.9234 15.3068 49.9683 15.3068 50.0233C15.3068 50.0783 15.3517 50.1232 15.4067 50.1232C15.4617 50.1232 15.5066 50.0782 15.5066 50.0233ZM18.6371 49.99C18.5638 49.9167 18.4439 49.9167 18.3706 49.99C18.2974 50.0632 18.3573 50.1232 18.5039 50.1232C18.6504 50.1232 18.7103 50.0632 18.6371 49.99ZM31.2922 50.0233C31.2922 49.9683 31.2472 49.9234 31.1922 49.9234C31.1373 49.9234 31.0923 49.9683 31.0923 50.0233C31.0923 50.0783 31.1373 50.1232 31.1922 50.1232C31.2472 50.1232 31.2922 50.0782 31.2922 50.0233ZM12.909 49.8235C12.909 49.7685 12.864 49.7236 12.8091 49.7236C12.7541 49.7236 12.7092 49.7685 12.7092 49.8235C12.7092 49.8784 12.7541 49.9234 12.8091 49.9234C12.864 49.9234 12.909 49.8784 12.909 49.8235ZM23.2995 49.8235C23.2995 49.7685 23.2545 49.7236 23.1996 49.7236C23.1446 49.7236 23.0996 49.7685 23.0996 49.8235C23.0996 49.8784 23.1446 49.9234 23.1996 49.9234C23.2545 49.9234 23.2995 49.8784 23.2995 49.8235ZM35.8879 49.8235C35.8879 49.7685 35.843 49.7236 35.788 49.7236C35.7331 49.7236 35.6881 49.7685 35.6881 49.8235C35.6881 49.8784 35.7331 49.9234 35.788 49.9234C35.843 49.9234 35.8879 49.8784 35.8879 49.8235ZM17.305 49.6236C17.305 49.5687 17.26 49.5237 17.205 49.5237C17.1501 49.5237 17.1051 49.5687 17.1051 49.6236C17.1051 49.6786 17.1501 49.7236 17.205 49.7236C17.26 49.7236 17.305 49.6786 17.305 49.6236ZM30.8925 49.6236C30.8925 49.5687 30.8476 49.5237 30.7926 49.5237C30.7376 49.5237 30.6927 49.5687 30.6927 49.6236C30.6927 49.6786 30.7377 49.7236 30.7926 49.7236C30.8476 49.7236 30.8925 49.6786 30.8925 49.6236ZM32.2912 49.6236C32.2912 49.5687 32.2463 49.5237 32.1913 49.5237C32.1364 49.5237 32.0914 49.5687 32.0914 49.6236C32.0914 49.6786 32.1364 49.7236 32.1913 49.7236C32.2463 49.7236 32.2912 49.6786 32.2912 49.6236ZM17.7046 49.4238C17.7046 49.3688 17.6596 49.3239 17.6047 49.3239C17.5497 49.3239 17.5048 49.3689 17.5048 49.4238C17.5048 49.4788 17.5497 49.5237 17.6047 49.5237C17.6597 49.5237 17.7046 49.4788 17.7046 49.4238ZM10.9108 49.224C10.9108 49.169 10.8659 49.1241 10.8109 49.1241C10.7559 49.1241 10.711 49.1691 10.711 49.224C10.711 49.279 10.7559 49.3239 10.8109 49.3239C10.8659 49.3239 10.9108 49.279 10.9108 49.224ZM11.5102 49.1241C11.5102 49.0142 11.4203 48.9243 11.3104 48.9243C11.2005 48.9243 11.1106 49.0142 11.1106 49.1241C11.1106 49.234 11.2005 49.3239 11.3104 49.3239C11.4203 49.3239 11.5102 49.234 11.5102 49.1241ZM16.0394 49.1907C15.9662 49.1175 15.8463 49.1175 15.773 49.1907C15.6998 49.264 15.7597 49.3239 15.9062 49.3239C16.0528 49.3239 16.1127 49.264 16.0394 49.1907ZM20.6352 48.9909C20.562 48.9176 20.502 48.9776 20.502 49.1241C20.502 49.2706 20.562 49.3306 20.6352 49.2573C20.7085 49.1841 20.7085 49.0642 20.6352 48.9909ZM31.8916 49.224C31.8916 49.169 31.8467 49.1241 31.7917 49.1241C31.7367 49.1241 31.6918 49.1691 31.6918 49.224C31.6918 49.279 31.7367 49.3239 31.7917 49.3239C31.8467 49.3239 31.8916 49.279 31.8916 49.224ZM15.2402 48.9909C15.1669 48.9176 15.047 48.9176 14.9737 48.9909C14.9005 49.0642 14.9604 49.1241 15.107 49.1241C15.2535 49.1241 15.3134 49.0641 15.2402 48.9909ZM19.2365 48.5913C19.1633 48.518 19.1033 48.578 19.1033 48.7245C19.1033 48.871 19.1633 48.9309 19.2365 48.8577C19.3098 48.7844 19.3098 48.6645 19.2365 48.5913ZM15.0404 47.9918C14.9671 47.9186 14.9071 47.9785 14.9071 48.125C14.9071 48.2716 14.9671 48.3315 15.0404 48.2582C15.1136 48.185 15.1136 48.0651 15.0404 47.9918ZM12.8424 47.792C12.7691 47.7187 12.7092 47.7787 12.7092 47.9252C12.7092 48.0717 12.7691 48.1317 12.8424 48.0584C12.9156 47.9852 12.9156 47.8653 12.8424 47.792ZM36.6872 47.6255C36.6872 47.5705 36.6423 47.5256 36.5873 47.5256C36.5323 47.5256 36.4874 47.5705 36.4874 47.6255C36.4874 47.6805 36.5324 47.7254 36.5873 47.7254C36.6423 47.7254 36.6872 47.6804 36.6872 47.6255ZM9.51208 47.4257C9.51208 47.3707 9.46714 47.3258 9.41217 47.3258C9.35719 47.3258 9.31225 47.3707 9.31225 47.4257C9.31225 47.4806 9.35719 47.5256 9.41217 47.5256C9.46715 47.5256 9.51208 47.4806 9.51208 47.4257ZM16.0362 46.5265C16.0733 46.2517 16.2349 45.3975 16.3952 44.6282C16.759 42.883 17.0933 40.0269 17.2117 37.6522C17.2616 36.6534 17.3507 34.982 17.4098 33.938C17.4689 32.894 17.5626 30.8292 17.618 29.3497C17.6733 27.8701 17.8075 26.6047 17.9161 26.5375C18.0247 26.4704 18.1529 26.2115 18.2009 25.9623C18.2647 25.631 18.2113 25.5385 18.0028 25.6185C17.8458 25.6788 17.6684 25.6489 17.6086 25.5521C17.5488 25.4553 17.6389 25.3468 17.8088 25.311C18.0594 25.2582 18.0429 25.1997 17.7211 25.0006C17.3992 24.8014 17.2691 24.8108 17.0293 25.0505C16.8669 25.2129 16.565 25.3458 16.3583 25.3458C16.1517 25.3458 15.8081 25.4778 15.5947 25.6392C15.3814 25.8005 14.9717 25.9354 14.6843 25.9389C14.3969 25.9427 13.9473 26.1098 13.6852 26.3109C13.1672 26.7083 12.4937 27.0252 12.2664 26.9784C12.1877 26.9621 11.8904 27.1818 11.6057 27.4665C11.275 27.7972 10.9478 27.9475 10.6997 27.8826C10.4805 27.8253 10.3112 27.882 10.311 28.0121C10.3108 28.1392 9.92128 28.4891 9.44541 28.7898C8.96955 29.0904 8.42175 29.5114 8.22809 29.7254C8.03444 29.9394 7.74956 30.066 7.59504 30.0067C7.42691 29.9422 7.31409 30.0253 7.31409 30.2137C7.31409 30.426 7.20515 30.4867 6.97967 30.4002C6.72816 30.3037 6.67647 30.3532 6.77118 30.6C6.8591 30.8291 6.6396 31.1392 6.04379 31.6274C5.57447 32.012 5.06944 32.5528 4.92148 32.8292C4.77353 33.1057 4.48704 33.3844 4.28484 33.4486C4.08263 33.5128 3.91719 33.733 3.91719 33.938C3.91719 34.1429 3.72548 34.3715 3.49116 34.4459C3.18611 34.5427 3.13664 34.6253 3.31694 34.7367C3.45544 34.8223 3.50607 34.9938 3.42944 35.1178C3.35282 35.2418 3.20745 35.2921 3.10641 35.2297C3.00536 35.1672 2.97668 35.2568 3.04267 35.4288C3.10867 35.6007 3.04946 35.878 2.91068 36.045C2.75367 36.2342 2.66458 36.9139 2.67427 37.8489C2.69172 39.5343 3.18974 40.6686 4.44422 41.8803C4.81376 42.2372 5.1161 42.6193 5.1161 42.7295C5.1161 42.8396 5.24651 42.9297 5.4059 42.9297C5.56529 42.9297 5.7676 43.047 5.85549 43.1903C5.94338 43.3336 6.36117 43.6258 6.78392 43.8397C7.20667 44.0536 7.72308 44.317 7.93149 44.4252C8.18611 44.5574 8.2738 44.754 8.1988 45.0247C8.13725 45.2468 8.16028 45.3378 8.25015 45.2276C8.4752 44.9517 9.18723 44.8451 9.02223 45.1121C8.94299 45.2403 9.01346 45.2763 9.20199 45.204C9.37255 45.1385 9.5121 45.17 9.5121 45.2741C9.5121 45.496 10.5155 45.9893 10.6643 45.8405C10.7201 45.7847 11.0151 45.9165 11.3197 46.1334C11.6244 46.3504 12.0076 46.4765 12.1713 46.4136C12.335 46.3508 12.5259 46.3916 12.5955 46.5041C12.665 46.6167 12.8315 46.6688 12.9653 46.6198C13.0992 46.5709 13.6133 46.6607 14.1079 46.8193C15.3844 47.2289 15.9529 47.1425 16.0362 46.5265L16.0362 46.5265ZM9.02442 35.6622C8.6729 35.382 8.50671 35.1089 8.59787 34.9614C8.68 34.8285 8.63858 34.5888 8.50572 34.4288C8.31561 34.1997 8.32258 34.0672 8.5385 33.8056C8.73817 33.5637 8.74913 33.452 8.57875 33.3946C8.22534 33.2756 8.86759 32.2703 9.48243 31.9802C10.1463 31.6669 10.5217 31.6852 11.0107 32.0547C11.3406 32.3039 11.4103 32.5904 11.4103 33.6968C11.4103 34.8871 11.3692 35.03 11.0431 34.9743C10.7581 34.9256 10.704 35 10.8015 35.3071C10.9391 35.7407 10.8573 35.8223 10.1057 36.0012C9.74914 36.0861 9.43069 35.9862 9.0244 35.6623L9.02442 35.6622ZM11.1106 34.0379C11.1106 33.9829 11.0657 33.938 11.0107 33.938C10.9557 33.938 10.9108 33.9829 10.9108 34.0379C10.9108 34.0929 10.9557 34.1378 11.0107 34.1378C11.0657 34.1378 11.1106 34.0929 11.1106 34.0379ZM17.7046 26.1451C17.7046 26.0352 17.7998 25.9453 17.9162 25.9453C18.0326 25.9453 18.0722 26.0352 18.0043 26.1451C17.9364 26.255 17.8412 26.3449 17.7927 26.3449C17.7442 26.3449 17.7046 26.255 17.7046 26.1451ZM19.9026 46.8262C19.9026 46.7712 19.8576 46.7263 19.8027 46.7263C19.7477 46.7263 19.7028 46.7712 19.7028 46.8262C19.7028 46.8812 19.7477 46.9261 19.8027 46.9261C19.8576 46.9261 19.9026 46.8812 19.9026 46.8262ZM37.2867 46.8262C37.2867 46.7712 37.2417 46.7263 37.1868 46.7263C37.1318 46.7263 37.0869 46.7712 37.0869 46.8262C37.0869 46.8812 37.1318 46.9261 37.1868 46.9261C37.2417 46.9261 37.2867 46.8812 37.2867 46.8262ZM31.2256 45.3942C31.1523 45.3209 31.0324 45.3209 30.9591 45.3942C30.8859 45.4674 30.9459 45.5274 31.0923 45.5274C31.2389 45.5274 31.2988 45.4674 31.2256 45.3942ZM4.91628 45.1278C4.91628 45.0179 4.87663 44.9279 4.82817 44.9279C4.77968 44.9279 4.68447 45.0179 4.61656 45.1278C4.54866 45.2377 4.58831 45.3276 4.70467 45.3276C4.82105 45.3276 4.91628 45.2377 4.91628 45.1278ZM35.8879 44.3285C35.8879 44.2186 35.7478 44.1287 35.5764 44.1287C35.4051 44.1287 35.3205 44.2186 35.3884 44.3285C35.4563 44.4384 35.5965 44.5283 35.6999 44.5283C35.8033 44.5283 35.8879 44.4384 35.8879 44.3285ZM32.2246 43.7956C32.1514 43.7224 32.0315 43.7224 31.9582 43.7956C31.885 43.8689 31.945 43.9289 32.0914 43.9289C32.2379 43.9289 32.2979 43.8689 32.2246 43.7956ZM31.8916 42.4302C31.8916 42.3752 31.8467 42.3303 31.7917 42.3303C31.7367 42.3303 31.6918 42.3753 31.6918 42.4302C31.6918 42.4852 31.7367 42.5301 31.7917 42.5301C31.8467 42.5301 31.8916 42.4852 31.8916 42.4302ZM47.4774 41.9307C47.4774 41.8208 47.3874 41.7309 47.2775 41.7309C47.1676 41.7309 47.0777 41.8208 47.0777 41.9307C47.0777 42.0406 47.1676 42.1305 47.2775 42.1305C47.3874 42.1305 47.4774 42.0406 47.4774 41.9307ZM38.2192 40.9982C38.1459 40.925 38.026 40.925 37.9527 40.9982C37.8795 41.0715 37.9395 41.1314 38.0859 41.1314C38.2325 41.1314 38.2924 41.0715 38.2192 40.9982ZM47.6772 40.8317C47.6772 40.7767 47.6322 40.7318 47.5773 40.7318C47.5223 40.7318 47.4774 40.7767 47.4774 40.8317C47.4774 40.8867 47.5223 40.9316 47.5773 40.9316C47.6322 40.9316 47.6772 40.8867 47.6772 40.8317ZM38.2858 39.3331C38.2858 39.2232 38.2011 39.1332 38.0977 39.1332C37.9943 39.1332 37.8541 39.2232 37.7862 39.3331C37.7183 39.443 37.8029 39.5329 37.9742 39.5329C38.1456 39.5329 38.2858 39.443 38.2858 39.3331ZM48.4098 38.8002C48.3366 38.727 48.2167 38.727 48.1434 38.8002C48.0702 38.8735 48.1301 38.9334 48.2766 38.9334C48.4232 38.9334 48.4831 38.8735 48.4098 38.8002ZM37.4865 37.1351C37.4865 37.0252 37.3966 36.9352 37.2867 36.9352C37.1768 36.9352 37.0869 37.0252 37.0869 37.1351C37.0869 37.245 37.1768 37.3349 37.2867 37.3349C37.3966 37.3349 37.4865 37.245 37.4865 37.1351ZM49.2757 37.0352C49.2757 36.9802 49.2308 36.9352 49.1758 36.9352C49.1208 36.9352 49.0759 36.9802 49.0759 37.0352C49.0759 37.0901 49.1208 37.1351 49.1758 37.1351C49.2308 37.1351 49.2757 37.0901 49.2757 37.0352ZM47.877 36.8354C47.877 36.7804 47.832 36.7354 47.7771 36.7354C47.7221 36.7354 47.6772 36.7804 47.6772 36.8354C47.6772 36.8903 47.7221 36.9352 47.7771 36.9352C47.8321 36.9352 47.877 36.8903 47.877 36.8354ZM34.2228 36.2026C34.1495 36.1293 34.0896 36.1893 34.0896 36.3358C34.0896 36.4823 34.1496 36.5423 34.2228 36.469C34.2961 36.3958 34.2961 36.2759 34.2228 36.2026ZM37.8195 36.2026C37.7463 36.1293 37.6863 36.1893 37.6863 36.3358C37.6863 36.4823 37.7463 36.5423 37.8195 36.469C37.8928 36.3958 37.8928 36.2759 37.8195 36.2026ZM32.4277 35.6989C32.3639 35.5395 32.3166 35.5868 32.307 35.8196C32.2983 36.0303 32.3456 36.1483 32.412 36.0819C32.4784 36.0155 32.4854 35.8431 32.4278 35.6989H32.4277ZM38.0859 34.5374C38.0859 34.4275 37.9564 34.3376 37.798 34.3376C37.6396 34.3376 37.4545 34.4275 37.3866 34.5374C37.3187 34.6473 37.4482 34.7373 37.6745 34.7373C37.9008 34.7373 38.0859 34.6473 38.0859 34.5374ZM37.6863 33.26C37.6863 33.2168 37.5514 33.1297 37.3866 33.0665C37.2217 33.0032 37.0869 33.0385 37.0869 33.145C37.0869 33.2515 37.2217 33.3385 37.3866 33.3385C37.5514 33.3385 37.6863 33.3032 37.6863 33.26ZM4.84968 32.4061C4.77642 32.3329 4.65651 32.3329 4.58325 32.4061C4.51 32.4794 4.56996 32.5393 4.71646 32.5393C4.86299 32.5393 4.92294 32.4794 4.84968 32.4061ZM46.2263 31.9491C46.3922 31.6835 46.4033 31.5175 46.261 31.4296C46.0085 31.2735 45.9673 31.3138 45.7902 31.8899C45.6203 32.4428 45.8946 32.4801 46.2262 31.9491L46.2263 31.9491ZM2.91811 32.0398C2.91811 31.9848 2.87318 31.9399 2.8182 31.9399C2.76322 31.9399 2.71829 31.9848 2.71829 32.0398C2.71829 32.0948 2.76322 32.1397 2.8182 32.1397C2.87318 32.1397 2.91811 32.0947 2.91811 32.0398ZM5.31592 31.7401C5.31592 31.6302 5.27627 31.5402 5.2278 31.5402C5.17931 31.5402 5.08411 31.6302 5.01619 31.7401C4.94829 31.85 4.98794 31.9399 5.1043 31.9399C5.22069 31.9399 5.31592 31.85 5.31592 31.7401ZM32.9906 31.5402C33.0585 31.4303 32.9739 31.3404 32.8026 31.3404C32.6312 31.3404 32.4911 31.4303 32.4911 31.5402C32.4911 31.6501 32.5757 31.7401 32.6791 31.7401C32.7825 31.7401 32.9227 31.6501 32.9906 31.5402ZM6.315 31.1406C6.315 31.0307 6.21977 30.9408 6.10339 30.9408C5.98701 30.9408 5.94735 31.0307 6.01527 31.1406C6.08317 31.2505 6.17842 31.3404 6.22689 31.3404C6.27537 31.3404 6.315 31.2505 6.315 31.1406ZM32.6909 30.6411C32.6909 30.5861 32.6459 30.5412 32.591 30.5412C32.536 30.5412 32.4911 30.5861 32.4911 30.6411C32.4911 30.696 32.536 30.741 32.591 30.741C32.6459 30.741 32.6909 30.696 32.6909 30.6411ZM35.6881 30.4412C35.6881 30.3863 35.6432 30.3413 35.5882 30.3413C35.5332 30.3413 35.4883 30.3863 35.4883 30.4412C35.4883 30.4962 35.5333 30.5412 35.5882 30.5412C35.6432 30.5412 35.6881 30.4962 35.6881 30.4412ZM36.4083 29.5962C36.2052 29.3931 36.0376 29.6989 36.2042 29.9685C36.3301 30.1722 36.3772 30.1724 36.4449 29.9691C36.4912 29.8303 36.4747 29.6624 36.4083 29.596L36.4083 29.5962ZM43.8806 30.0416C43.8806 29.9866 43.8357 29.9417 43.7807 29.9417C43.7257 29.9417 43.6808 29.9866 43.6808 30.0416C43.6808 30.0966 43.7258 30.1415 43.7807 30.1415C43.8357 30.1415 43.8806 30.0966 43.8806 30.0416ZM44.4801 29.7419C44.4801 29.632 44.4405 29.5421 44.392 29.5421C44.3435 29.5421 44.2483 29.632 44.1804 29.7419C44.1125 29.8518 44.1522 29.9417 44.2685 29.9417C44.3849 29.9417 44.4801 29.8518 44.4801 29.7419ZM7.5139 29.4422C7.5139 29.3872 7.46897 29.3422 7.41399 29.3422C7.35901 29.3422 7.31409 29.3872 7.31409 29.4422C7.31409 29.4971 7.35902 29.5421 7.41399 29.5421C7.46897 29.5421 7.5139 29.4971 7.5139 29.4422ZM44.2803 29.1424C44.2803 29.0325 44.2407 28.9426 44.1922 28.9426C44.1437 28.9426 44.0485 29.0325 43.9805 29.1424C43.9127 29.2523 43.9523 29.3422 44.0687 29.3422C44.1851 29.3422 44.2803 29.2523 44.2803 29.1424ZM42.2489 28.7675C42.4662 28.6298 42.4605 28.5775 42.2184 28.4846C41.9096 28.3661 41.6826 28.4899 41.6826 28.7761C41.6826 28.9875 41.9071 28.9841 42.2488 28.7676L42.2489 28.7675ZM33.4901 28.543C33.4901 28.4331 33.3949 28.3432 33.2785 28.3432C33.1621 28.3432 33.1225 28.4331 33.1904 28.543C33.2583 28.6529 33.3536 28.7428 33.402 28.7428C33.4505 28.7428 33.4901 28.6529 33.4901 28.543ZM34.689 28.6429C34.689 28.5879 34.6441 28.543 34.5891 28.543C34.5342 28.543 34.4892 28.5879 34.4892 28.6429C34.4892 28.6979 34.5342 28.7428 34.5891 28.7428C34.6441 28.7428 34.689 28.6979 34.689 28.6429ZM9.91171 28.0434C9.91171 27.9885 9.86677 27.9435 9.8118 27.9435C9.75682 27.9435 9.71189 27.9885 9.71189 28.0434C9.71189 28.0984 9.75683 28.1433 9.8118 28.1433C9.86678 28.1433 9.91171 28.0984 9.91171 28.0434ZM18.7385 27.4988C18.6286 27.3889 18.4313 27.3653 18.3001 27.4465C18.1189 27.5585 18.1244 27.6327 18.3232 27.7555C18.664 27.9662 18.999 27.7594 18.7386 27.4988L18.7385 27.4988ZM41.4162 27.6105C41.343 27.5372 41.283 27.5972 41.283 27.7437C41.283 27.8902 41.343 27.9502 41.4162 27.8769C41.4895 27.8037 41.4895 27.6838 41.4162 27.6105ZM9.11244 27.6438C9.11244 27.5888 9.06751 27.5439 9.01253 27.5439C8.95755 27.5439 8.91263 27.5888 8.91263 27.6438C8.91263 27.6988 8.95756 27.7437 9.01253 27.7437C9.06751 27.7437 9.11244 27.6988 9.11244 27.6438ZM33.8898 27.0444C34.0285 26.8772 34.0502 26.7446 33.9387 26.7446C33.8288 26.7446 33.627 26.8795 33.4902 27.0444C33.3514 27.2116 33.3298 27.3441 33.4412 27.3441C33.5511 27.3441 33.753 27.2092 33.8898 27.0444ZM18.9035 26.5448C18.9035 26.4349 18.8083 26.345 18.6919 26.345C18.5755 26.345 18.5358 26.4349 18.6038 26.5448C18.6717 26.6547 18.7669 26.7446 18.8154 26.7446C18.8639 26.7446 18.9035 26.6547 18.9035 26.5448ZM39.6397 26.1797C39.6872 26.0371 39.5947 25.9923 39.404 26.0655C39.2313 26.1318 38.8192 26.0916 38.4881 25.9762C38.1232 25.849 37.8861 25.8409 37.8861 25.9558C37.8861 26.06 38.021 26.1452 38.1859 26.1452C38.3507 26.1452 38.4856 26.2382 38.4856 26.3519C38.4856 26.6321 39.5414 26.4747 39.6397 26.1798V26.1797ZM20.3022 26.2451C20.3022 26.1901 20.2573 26.1452 20.2023 26.1452C20.1473 26.1452 20.1024 26.1901 20.1024 26.2451C20.1024 26.3001 20.1473 26.345 20.2023 26.345C20.2573 26.345 20.3022 26.3 20.3022 26.2451ZM12.7092 26.0453C12.7092 25.9903 12.6642 25.9453 12.6092 25.9453C12.5543 25.9453 12.5093 25.9903 12.5093 26.0453C12.5093 26.1002 12.5543 26.1452 12.6092 26.1452C12.6642 26.1452 12.7092 26.1002 12.7092 26.0453ZM12.3095 25.7455C12.3095 25.6356 12.2196 25.5457 12.1097 25.5457C11.9998 25.5457 11.9099 25.6356 11.9099 25.7455C11.9099 25.8554 11.9998 25.9453 12.1097 25.9453C12.2196 25.9453 12.3095 25.8554 12.3095 25.7455ZM35.8879 25.4458C35.8879 25.3908 35.843 25.3459 35.788 25.3459C35.7331 25.3459 35.6881 25.3908 35.6881 25.4458C35.6881 25.5008 35.7331 25.5457 35.788 25.5457C35.843 25.5457 35.8879 25.5008 35.8879 25.4458ZM38.6284 24.8226C38.4368 24.631 37.867 25.1533 38.0119 25.3877C38.0841 25.5045 38.2605 25.4568 38.4474 25.2699C38.6201 25.0971 38.7016 24.8959 38.6284 24.8226ZM39.4181 25.4125C39.3448 25.3392 39.2249 25.3392 39.1516 25.4125C39.0784 25.4858 39.1384 25.5457 39.2848 25.5457C39.4314 25.5457 39.4913 25.4857 39.4181 25.4125ZM37.0869 25.246C37.0869 25.191 37.0419 25.1461 36.9869 25.1461C36.932 25.1461 36.887 25.191 36.887 25.246C36.887 25.301 36.932 25.3459 36.9869 25.3459C37.0419 25.3459 37.0869 25.301 37.0869 25.246ZM19.6361 24.8131C19.5629 24.7398 19.443 24.7398 19.3697 24.8131C19.2965 24.8863 19.3564 24.9463 19.5029 24.9463C19.6495 24.9463 19.7094 24.8863 19.6361 24.8131ZM18.7037 24.4467C18.7037 24.3918 18.6587 24.3468 18.6038 24.3468C18.5488 24.3468 18.5039 24.3918 18.5039 24.4467C18.5039 24.5017 18.5488 24.5466 18.6038 24.5466C18.6587 24.5466 18.7037 24.5017 18.7037 24.4467ZM35.8213 24.4134C35.7481 24.3402 35.6282 24.3402 35.5549 24.4134C35.4817 24.4867 35.5417 24.5466 35.6881 24.5466C35.8347 24.5466 35.8946 24.4867 35.8213 24.4134ZM19.3031 24.2469C19.3031 24.1919 19.2582 24.147 19.2032 24.147C19.1482 24.147 19.1033 24.1919 19.1033 24.2469C19.1033 24.3019 19.1483 24.3468 19.2032 24.3468C19.2582 24.3468 19.3031 24.3019 19.3031 24.2469ZM15.9062 23.9472C15.9062 23.8373 15.8666 23.7474 15.8181 23.7474C15.7696 23.7474 15.6744 23.8373 15.6065 23.9472C15.5386 24.0571 15.5783 24.147 15.6946 24.147C15.811 24.147 15.9062 24.0571 15.9062 23.9472ZM22.5002 23.6475C22.5002 23.5925 22.4553 23.5475 22.4003 23.5475C22.3453 23.5475 22.3004 23.5925 22.3004 23.6475C22.3004 23.7024 22.3453 23.7474 22.4003 23.7474C22.4553 23.7474 22.5002 23.7024 22.5002 23.6475ZM34.2894 23.6475C34.2894 23.5925 34.2445 23.5475 34.1895 23.5475C34.1345 23.5475 34.0896 23.5925 34.0896 23.6475C34.0896 23.7024 34.1345 23.7474 34.1895 23.7474C34.2445 23.7474 34.2894 23.7024 34.2894 23.6475ZM36.2876 23.6475C36.2876 23.5925 36.2426 23.5475 36.1877 23.5475C36.1327 23.5475 36.0878 23.5925 36.0878 23.6475C36.0878 23.7024 36.1327 23.7474 36.1877 23.7474C36.2427 23.7474 36.2876 23.7024 36.2876 23.6475ZM21.2347 23.2145C21.1614 23.1413 21.1015 23.2012 21.1015 23.3477C21.1015 23.4943 21.1614 23.5542 21.2347 23.4809C21.3079 23.4077 21.3079 23.2878 21.2347 23.2145ZM23.033 23.4143C22.9598 23.3411 22.8399 23.3411 22.7666 23.4143C22.6934 23.4876 22.7533 23.5476 22.8998 23.5476C23.0464 23.5476 23.1063 23.4876 23.033 23.4143ZM16.9053 23.2596C16.9053 23.2111 16.8154 23.1159 16.7055 23.048C16.5956 22.9801 16.5057 23.0198 16.5057 23.1361C16.5057 23.2525 16.5956 23.3477 16.7055 23.3477C16.8154 23.3477 16.9053 23.3081 16.9053 23.2596ZM20.6072 22.9867C20.5457 22.9251 20.3845 22.9866 20.2489 23.1231C20.053 23.3205 20.076 23.3434 20.3608 23.235C20.5578 23.1599 20.6687 23.0482 20.6072 22.9867ZM23.6991 23.048C23.6991 22.993 23.6542 22.9481 23.5992 22.9481C23.5442 22.9481 23.4993 22.993 23.4993 23.048C23.4993 23.103 23.5442 23.1479 23.5992 23.1479C23.6542 23.1479 23.6991 23.103 23.6991 23.048ZM32.2912 22.8482C32.2912 22.7932 32.2463 22.7483 32.1913 22.7483C32.1364 22.7483 32.0914 22.7932 32.0914 22.8482C32.0914 22.9032 32.1364 22.9481 32.1913 22.9481C32.2463 22.9481 32.2912 22.9032 32.2912 22.8482ZM25.6973 22.4486C25.6973 22.3936 25.6523 22.3487 25.5974 22.3487C25.5424 22.3487 25.4975 22.3936 25.4975 22.4486C25.4975 22.5035 25.5424 22.5485 25.5974 22.5485C25.6523 22.5485 25.6973 22.5035 25.6973 22.4486ZM20.502 22.1488C20.502 22.0389 20.4624 21.949 20.4139 21.949C20.3654 21.949 20.2702 22.0389 20.2023 22.1488C20.1344 22.2587 20.1741 22.3487 20.2904 22.3487C20.4068 22.3487 20.502 22.2587 20.502 22.1488ZM18.2374 22.0156C18.1642 21.9424 18.0443 21.9424 17.971 22.0156C17.8977 22.0889 17.9577 22.1488 18.1042 22.1488C18.2507 22.1488 18.3107 22.0889 18.2374 22.0156ZM29.4272 22.0156C29.3539 21.9424 29.234 21.9424 29.1608 22.0156C29.0875 22.0889 29.1475 22.1488 29.294 22.1488C29.4405 22.1488 29.5005 22.0889 29.4272 22.0156ZM34.4892 22.0489C34.4892 21.994 34.4443 21.949 34.3893 21.949C34.3343 21.949 34.2894 21.994 34.2894 22.0489C34.2894 22.1039 34.3344 22.1488 34.3893 22.1488C34.4443 22.1488 34.4892 22.1039 34.4892 22.0489ZM35.8879 21.6611C35.8879 21.6126 35.798 21.5174 35.6881 21.4495C35.5782 21.3816 35.4883 21.4212 35.4883 21.5376C35.4883 21.654 35.5782 21.7492 35.6881 21.7492C35.798 21.7492 35.8879 21.7096 35.8879 21.6611ZM23.0996 21.4495C23.0996 21.3945 23.0547 21.3496 22.9997 21.3496C22.9448 21.3496 22.8998 21.3945 22.8998 21.4495C22.8998 21.5045 22.9448 21.5494 22.9997 21.5494C23.0547 21.5494 23.0996 21.5045 23.0996 21.4495ZM26.0969 21.4495C26.0969 21.3945 26.052 21.3496 25.997 21.3496C25.942 21.3496 25.8971 21.3945 25.8971 21.4495C25.8971 21.5045 25.942 21.5494 25.997 21.5494C26.052 21.5494 26.0969 21.5045 26.0969 21.4495ZM32.8907 21.0498C32.8907 20.9949 32.8457 20.9499 32.7908 20.9499C32.7358 20.9499 32.6909 20.9949 32.6909 21.0498C32.6909 21.1048 32.7358 21.1498 32.7908 21.1498C32.8458 21.1498 32.8907 21.1048 32.8907 21.0498ZM35.3134 20.2514C36.8845 19.9394 38.8511 19.206 40.5663 18.2925C41.1063 18.0049 41.6372 17.8247 41.7462 17.892C41.8551 17.9594 41.8865 17.921 41.8159 17.8069C41.7454 17.6928 41.9788 17.4824 42.3346 17.3394C42.6903 17.1965 43.5659 16.6505 44.2802 16.1262C45.8243 14.993 45.8942 14.9319 46.2726 14.3828C46.4342 14.1482 46.659 13.9562 46.7721 13.956C46.8852 13.9559 47.0026 13.5941 47.0329 13.152C47.0769 12.51 46.9878 12.2555 46.59 11.8868C46.1934 11.5192 46.1415 11.3718 46.3351 11.1627C46.5296 10.9526 46.5132 10.9229 46.2528 11.014C46.0739 11.0765 45.8491 11.0515 45.7533 10.9585C45.5426 10.7538 43.5428 10.6309 43.3621 10.8115C43.2917 10.882 42.9748 10.8878 42.6581 10.8245C42.2998 10.7528 42.0823 10.7932 42.0823 10.9314C42.0823 11.2282 40.6768 11.8032 40.2343 11.6875C40.0415 11.637 39.9267 11.6653 39.9792 11.7503C40.1695 12.0582 39.253 12.6375 38.5755 12.6375C38.1963 12.6375 37.8861 12.7359 37.8861 12.8562C37.8861 12.9765 37.4357 13.4184 36.8851 13.8383C36.006 14.5087 35.8418 14.5684 35.5364 14.3289C35.2246 14.0845 35.2158 14.0911 35.4517 14.3925C35.6745 14.6773 35.6563 14.7845 35.333 15.0919C33.0285 17.2828 32.8543 17.4178 32.6853 17.1443C32.5904 16.9908 32.4404 16.9423 32.352 17.0366C32.2636 17.1309 32.3037 17.2482 32.4411 17.2973C32.8464 17.442 32.7479 17.6204 31.5801 18.8553C30.7474 19.7359 30.4959 20.1356 30.5754 20.4524C30.6765 20.8552 30.7541 20.8675 32.2357 20.7144C33.0905 20.6261 34.4754 20.4177 35.3134 20.2513L35.3134 20.2514ZM42.0823 20.85C42.0823 20.7951 42.0373 20.7501 41.9824 20.7501C41.9274 20.7501 41.8825 20.795 41.8825 20.85C41.8825 20.905 41.9274 20.9499 41.9824 20.9499C42.0374 20.9499 42.0823 20.905 42.0823 20.85ZM24.898 20.2506C24.898 20.1956 24.8531 20.1507 24.7981 20.1507C24.7431 20.1507 24.6982 20.1956 24.6982 20.2506C24.6982 20.3056 24.7431 20.3505 24.7981 20.3505C24.8531 20.3505 24.898 20.3056 24.898 20.2506ZM27.4893 18.3893C28.3376 16.6333 28.5193 15.856 28.8994 12.3578C29.1031 10.4826 29.0852 10.0547 28.7308 8.32973C28.5127 7.26824 28.1043 5.94196 27.8233 5.38243C27.4916 4.72208 27.397 4.35977 27.5538 4.3499C27.6867 4.34152 27.482 4.22157 27.099 4.0833C26.2898 3.79118 25.3072 4.00997 24.4998 4.66216C23.651 5.34781 21.7009 7.34334 21.7009 7.52634C21.7009 7.62189 21.5215 7.86248 21.3021 8.061C21.0827 8.25951 20.6901 8.88765 20.4295 9.45685C20.0464 10.2936 19.9837 10.6608 20.1021 11.3748C20.2969 12.5494 20.4443 12.8895 21.233 13.9831C21.6003 14.4924 21.9007 14.9632 21.9007 15.0293C21.9007 15.2625 24.1522 17.9527 24.3473 17.9527C24.456 17.9527 24.4998 18.1254 24.4446 18.3364C24.3712 18.6173 24.472 18.7521 24.821 18.8397C25.2845 18.9561 25.4984 19.3514 25.0978 19.3514C24.9879 19.3514 24.898 19.4518 24.898 19.5745C24.898 19.6972 25.0701 19.7526 25.2804 19.6976C25.5441 19.6287 25.695 19.7206 25.7664 19.9936C25.8676 20.381 25.881 20.3815 26.3748 20.0204C26.6525 19.8173 27.154 19.0833 27.4893 18.3893V18.3893ZM43.8806 20.0508C43.8806 19.9958 43.8357 19.9508 43.7807 19.9508C43.7257 19.9508 43.6808 19.9958 43.6808 20.0508C43.6808 20.1057 43.7258 20.1507 43.7807 20.1507C43.8357 20.1507 43.8806 20.1057 43.8806 20.0508ZM24.0321 19.0184C23.9589 18.9451 23.8989 19.0051 23.8989 19.1516C23.8989 19.2981 23.9589 19.3581 24.0321 19.2848C24.1054 19.2115 24.1054 19.0916 24.0321 19.0184ZM46.2118 18.6187C46.1386 18.5455 46.0187 18.5455 45.9454 18.6187C45.8722 18.692 45.9322 18.7519 46.0786 18.7519C46.2252 18.7519 46.2851 18.692 46.2118 18.6187ZM32.0914 17.9527C32.0914 17.8428 32.0015 17.7529 31.8916 17.7529C31.7817 17.7529 31.6918 17.8428 31.6918 17.9527C31.6918 18.0626 31.7817 18.1525 31.8916 18.1525C32.0015 18.1525 32.0914 18.0626 32.0914 17.9527ZM34.0896 16.0662C34.0896 16.0177 33.9997 15.9225 33.8898 15.8546C33.7799 15.7867 33.69 15.8263 33.69 15.9427C33.69 16.0591 33.7799 16.1543 33.8898 16.1543C33.9997 16.1543 34.0896 16.1147 34.0896 16.0662ZM34.4892 15.2551C34.4892 15.2002 34.4443 15.1552 34.3893 15.1552C34.3343 15.1552 34.2894 15.2002 34.2894 15.2551C34.2894 15.3101 34.3344 15.3551 34.3893 15.3551C34.4443 15.3551 34.4892 15.3101 34.4892 15.2551ZM31.8916 15.0553C31.8916 15.0003 31.8467 14.9554 31.7917 14.9554C31.7367 14.9554 31.6918 15.0004 31.6918 15.0553C31.6918 15.1103 31.7367 15.1552 31.7917 15.1552C31.8467 15.1552 31.8916 15.1103 31.8916 15.0553ZM49.2091 14.0229C49.1358 13.9497 49.0159 13.9497 48.9427 14.0229C48.8694 14.0962 48.9294 14.1561 49.0759 14.1561C49.2224 14.1561 49.2824 14.0962 49.2091 14.0229ZM35.8879 13.6566C35.8879 13.6016 35.843 13.5567 35.788 13.5567C35.7331 13.5567 35.6881 13.6016 35.6881 13.6566C35.6881 13.7116 35.7331 13.7565 35.788 13.7565C35.843 13.7565 35.8879 13.7116 35.8879 13.6566ZM36.8329 13.436C36.7665 13.3696 36.5942 13.3625 36.4499 13.4202C36.2905 13.484 36.3379 13.5313 36.5707 13.5409C36.7813 13.5496 36.8993 13.5023 36.8329 13.436V13.436ZM29.4938 12.6575C29.4938 12.6025 29.4489 12.5576 29.3939 12.5576C29.3389 12.5576 29.294 12.6025 29.294 12.6575C29.294 12.7125 29.3389 12.7574 29.3939 12.7574C29.4489 12.7574 29.4938 12.7125 29.4938 12.6575ZM34.4892 12.6575C34.4892 12.6025 34.4443 12.5576 34.3893 12.5576C34.3343 12.5576 34.2894 12.6025 34.2894 12.6575C34.2894 12.7125 34.3344 12.7574 34.3893 12.7574C34.4443 12.7574 34.4892 12.7125 34.4892 12.6575ZM31.0923 12.4577C31.0923 12.4027 31.0474 12.3578 30.9924 12.3578C30.9375 12.3578 30.8925 12.4027 30.8925 12.4577C30.8925 12.5127 30.9375 12.5576 30.9924 12.5576C31.0474 12.5576 31.0923 12.5127 31.0923 12.4577ZM38.8186 12.2246C38.7454 12.1513 38.6254 12.1513 38.5522 12.2246C38.4789 12.2978 38.5389 12.3578 38.6854 12.3578C38.8319 12.3578 38.8919 12.2978 38.8186 12.2246ZM39.085 11.1589C39.085 11.049 38.9951 10.9591 38.8852 10.9591C38.7753 10.9591 38.6854 11.049 38.6854 11.1589C38.6854 11.2688 38.7753 11.3587 38.8852 11.3587C38.9951 11.3587 39.085 11.2688 39.085 11.1589ZM36.4874 10.4595C36.4874 10.4045 36.4425 10.3596 36.3875 10.3596C36.3325 10.3596 36.2876 10.4046 36.2876 10.4595C36.2876 10.5145 36.3325 10.5594 36.3875 10.5594C36.4425 10.5594 36.4874 10.5145 36.4874 10.4595ZM42.4819 10.0599C42.4819 10.0049 42.437 9.95998 42.382 9.95998C42.327 9.95998 42.2821 10.0049 42.2821 10.0599C42.2821 10.1149 42.3271 10.1598 42.382 10.1598C42.437 10.1598 42.4819 10.1149 42.4819 10.0599ZM23.2329 5.03117C23.1596 4.95791 23.0397 4.95791 22.9664 5.03117C22.8932 5.10442 22.9531 5.16437 23.0996 5.16437C23.2462 5.16437 23.3061 5.10441 23.2329 5.03117ZM24.2444 4.24438C24.1781 4.178 24.0057 4.1709 23.8615 4.22859C23.702 4.29241 23.7494 4.33973 23.9822 4.34931C24.1928 4.358 24.3108 4.31073 24.2444 4.24437V4.24438ZM25.4975 3.06629C25.4975 3.01131 25.4525 2.96638 25.3975 2.96638C25.3426 2.96638 25.2976 3.01132 25.2976 3.06629C25.2976 3.12127 25.3426 3.1662 25.3975 3.1662C25.4525 3.1662 25.4975 3.12126 25.4975 3.06629ZM28.2283 1.43445C28.155 1.3612 28.0951 1.42116 28.0951 1.56766C28.0951 1.71419 28.1551 1.77414 28.2283 1.70087C28.3015 1.62761 28.3015 1.50772 28.2283 1.43445ZM26.3756 50.5568C26.4551 50.4283 26.6651 50.3231 26.8423 50.3231C27.0195 50.3231 27.3226 50.1799 27.516 50.005C27.8418 49.71 27.8595 49.7173 27.7582 50.1049C27.698 50.3348 27.4868 50.5229 27.2889 50.5229C27.0909 50.5229 26.7719 50.5831 26.58 50.6567C26.3422 50.748 26.2771 50.7163 26.3756 50.5568ZM25.7639 49.7902C25.8371 49.717 25.957 49.717 26.0303 49.7902C26.1036 49.8635 26.0436 49.9234 25.8971 49.9234C25.7506 49.9234 25.6906 49.8635 25.7639 49.7902ZM37.3533 49.7902C37.4265 49.717 37.5464 49.717 37.6197 49.7902C37.693 49.8635 37.633 49.9234 37.4865 49.9234C37.34 49.9234 37.28 49.8635 37.3533 49.7902ZM26.6964 49.6237C26.6964 49.5687 26.7413 49.5238 26.7963 49.5238C26.8513 49.5238 26.8962 49.5687 26.8962 49.6237C26.8962 49.6787 26.8512 49.7236 26.7963 49.7236C26.7413 49.7236 26.6964 49.6787 26.6964 49.6237ZM39.7962 48.8308C40.1654 48.5515 40.1552 48.5368 39.5846 48.525C39.0795 48.5145 39.0402 48.4805 39.3348 48.3089C39.5271 48.1969 39.6845 47.9973 39.6846 47.8654C39.6848 47.5289 40.6348 47.51 40.763 47.8439C40.8223 47.9987 41.006 48.0655 41.1842 47.9971C41.3579 47.9304 41.4526 47.8285 41.3946 47.7705C41.3366 47.7125 41.4452 47.5466 41.6358 47.4019C41.849 47.24 41.8862 47.1363 41.7326 47.1324C41.5952 47.1285 41.4828 47.0445 41.4828 46.9449C41.4828 46.8453 41.6627 46.8108 41.8825 46.8683C42.1059 46.9267 42.2821 46.8743 42.2821 46.7497C42.2821 46.6269 42.0573 46.5265 41.7826 46.5265C41.5078 46.5265 41.283 46.4313 41.283 46.3149C41.283 46.1985 41.3581 46.1497 41.4499 46.2065C41.5416 46.2632 41.9451 46.2085 42.3464 46.0856C42.9374 45.9042 43.0321 45.8088 42.8451 45.5834C42.6652 45.3667 42.6768 45.3186 42.8977 45.3663C43.0537 45.4 43.1588 45.3152 43.1313 45.1778C43.1038 45.0404 43.2259 44.928 43.4025 44.928C43.5927 44.928 43.6806 45.0399 43.6183 45.2025C43.5576 45.3605 43.72 45.5878 44.0011 45.7383C44.6049 46.0614 44.5317 46.3428 43.7782 46.594C43.3695 46.7302 43.1789 46.7193 43.1247 46.5565C43.0133 46.2223 42.7443 46.2752 42.5965 46.6604C42.526 46.844 42.5812 47.0639 42.7191 47.1491C42.8571 47.2343 42.9002 47.3738 42.815 47.459C42.7297 47.5442 42.5764 47.4817 42.4741 47.32C42.3074 47.0565 42.1978 47.1833 42.257 47.5712C42.2693 47.6512 41.9932 47.8646 41.6436 48.0454C41.1531 48.299 40.926 48.3228 40.6487 48.1497C40.162 47.8457 40.0192 47.8676 40.1564 48.225C40.3209 48.6537 40.0951 49.1241 39.7248 49.1241C39.4684 49.1241 39.4819 49.0685 39.7961 48.8308L39.7962 48.8308ZM43.9805 46.1269C44.0484 46.017 43.9189 45.9271 43.6926 45.9271C43.4663 45.9271 43.2812 46.017 43.2812 46.1269C43.2812 46.2368 43.4108 46.3267 43.5691 46.3267C43.7275 46.3267 43.9126 46.2368 43.9805 46.1269ZM21.9007 48.1133C21.9007 47.9969 21.9907 47.9572 22.1006 48.0252C22.2105 48.0931 22.3004 48.1883 22.3004 48.2368C22.3004 48.2853 22.2105 48.3249 22.1006 48.3249C21.9907 48.3249 21.9007 48.2297 21.9007 48.1133ZM39.085 47.4078C39.085 47.2432 39.9466 46.5413 40.1585 46.5332C40.2544 46.5293 40.2094 46.6761 40.0586 46.859C39.81 47.1604 39.8263 47.1691 40.234 46.9519C40.4813 46.8201 40.6836 46.5696 40.6836 46.3951C40.6836 46.1359 40.7383 46.1234 40.9833 46.3267C41.4553 46.7184 41.3486 46.8662 40.3482 47.2071C39.3394 47.5508 39.085 47.5913 39.085 47.4078V47.4078ZM45.4792 45.6274C45.4792 45.5724 45.5241 45.5275 45.5791 45.5275C45.6341 45.5275 45.679 45.5724 45.679 45.6274C45.679 45.6823 45.6341 45.7273 45.5791 45.7273C45.5241 45.7273 45.4792 45.6823 45.4792 45.6274ZM47.877 34.2378C47.877 34.1828 47.9219 34.1379 47.9769 34.1379C48.0319 34.1379 48.0768 34.1828 48.0768 34.2378C48.0768 34.2928 48.0319 34.3377 47.9769 34.3377C47.9219 34.3377 47.877 34.2927 47.877 34.2378ZM36.5873 28.9426C36.5194 28.8327 36.5591 28.7428 36.6754 28.7428C36.7918 28.7428 36.887 28.8327 36.887 28.9426C36.887 29.0525 36.8474 29.1424 36.7989 29.1424C36.7504 29.1424 36.6552 29.0525 36.5873 28.9426Z" fill="#FFC523"/>
</svg>
