<svg width="81" height="99" viewBox="0 0 81 99" fill="none" xmlns="http://www.w3.org/2000/svg">
<g filter="url(#filter0_i_30_8)">
<path d="M40.5 0L75.574 20.25V60.75L40.5 81L5.42597 60.75V20.25L40.5 0Z" fill="#DCD1D6"/>
</g>
<path d="M40.5574 84.5L53.1147 77V91.5L40.5574 98.75L28 91.5V77L40.5574 84.5Z" fill="#BE3438"/>
<path d="M59.9048 43.9013H57.5602C57.3192 42.705 56.8952 41.5387 56.2706 40.4126C61.2101 33.7993 62.4672 26.7288 59.1865 23.1844C56.2748 20.0346 50.8158 20.7361 45.3305 24.6866C44.0937 20.9085 41.9356 18.4932 39.2246 18.0643C34.3085 17.3118 29.6648 23.2333 27.9172 32.2623C21.8703 34.9805 18 40.301 18 46.1636C18 47.1102 18.1002 48.0405 18.2925 48.9468C19.6393 55.2899 25.5083 60.4501 33.2213 61.7007L33.2301 61.7018L33.2355 61.703L33.2452 61.7039C34.4084 61.8998 35.6235 62 36.8571 62C37.4874 62 38.1183 61.9753 38.7487 61.926C40.6399 61.7781 42.5271 61.4093 44.3807 60.8236L44.3868 60.8202C51.4333 58.5902 56.4487 53.7796 57.5702 48.426H59.9048C61.0628 48.426 62 47.4129 62 46.1636C62 44.9144 61.0628 43.9013 59.9048 43.9013ZM56.2239 26.3836C57.7563 28.0405 56.4346 33.5251 52.0824 38.7459C52.0682 38.7613 52.0558 38.7769 52.0434 38.7934C51.7243 39.1988 51.3866 39.5832 51.0245 39.9732C50.2694 40.7895 49.4592 41.5661 48.6163 42.2819C48.2521 42.5901 47.8898 42.8785 47.4848 43.1801C47.0796 43.4982 46.6725 43.7766 46.2591 44.0407L45.4202 44.5544C45.1419 44.7157 44.8616 44.8782 44.5383 45.0427C44.2927 45.173 44.0514 45.2845 43.8221 45.384C43.2906 45.6017 42.7816 45.8012 42.287 45.9401L41.6022 46.1087C40.9699 46.2302 40.3931 46.2623 39.9367 46.2026C39.8959 46.1971 39.8263 46.1926 39.7547 46.1903C39.6195 46.1661 39.4722 46.1351 39.278 46.0811C39.1961 46.0612 39.1246 46.0259 39.053 45.996C39.0161 45.9817 38.9813 45.9673 38.9444 45.9551C38.877 45.9198 38.8053 45.8788 38.707 45.8137C38.6559 45.7815 38.5658 45.7143 38.4451 45.5849C38.0317 45.1365 37.821 44.4173 37.821 43.4486C37.821 43.2364 37.8394 43.0056 37.8476 42.8631C37.8966 42.4321 37.9827 41.9656 38.0868 41.5265C38.0938 41.496 38.0984 41.4697 38.1057 41.4385C38.1788 41.1603 38.2519 40.8831 38.3387 40.5963C38.4451 40.256 38.5679 39.9146 38.7028 39.5832L39.0142 38.8495C39.0421 38.7893 39.0773 38.7117 39.0773 38.7117C39.2103 38.4244 39.3434 38.1262 39.5499 37.7584C39.7444 37.3794 39.9591 36.9797 40.1372 36.6614C40.704 35.7313 41.2115 34.9857 41.7742 34.2565C42.3286 33.4932 42.9549 32.7321 43.6403 31.9942C44.2131 31.3745 44.8065 30.7967 45.4388 30.2465C50.0936 25.9992 54.767 24.8174 56.2239 26.3836ZM41.5425 56.9036C41.2291 56.9758 40.9173 57.0554 40.6018 57.1134C40.1368 57.1986 39.6704 57.2529 39.204 57.307C38.9069 57.3414 38.6094 57.3889 38.3129 57.4104C38.1688 57.4208 38.0278 57.4129 37.8838 57.4201C39.1391 55.3856 40.0453 53.126 40.5502 50.7401C40.5668 50.7399 40.5873 50.7347 40.6038 50.7342C41.1712 50.722 41.7678 50.672 42.4389 50.5399L43.255 50.3406L43.2614 50.3399C43.2658 50.3388 43.2711 50.3368 43.2755 50.3356L43.335 50.3211C43.3578 50.3146 43.3834 50.3028 43.4064 50.2963C43.8712 50.1766 44.3797 49.9949 44.9412 49.7612C44.5322 52.2419 43.6985 54.601 42.5 56.6588C42.1826 56.748 41.8639 56.8297 41.5425 56.9036ZM38.398 22.5263C38.4757 22.5263 38.5534 22.5317 38.6293 22.5428C39.9409 22.7505 41.1543 24.7522 41.7927 27.6552C41.4181 28.0174 41.0455 28.3975 40.6772 28.7941C40.2135 29.2947 39.781 29.8038 39.3708 30.3105C39.3316 30.3592 39.2857 30.4056 39.247 30.4542C39.0731 30.4408 38.9279 30.4343 38.8214 30.4309C38.3154 30.3716 37.8105 30.3379 37.3112 30.3232C37.0319 30.3146 36.7553 30.3252 36.4777 30.3289C36.2749 30.3323 36.0695 30.328 35.8705 30.3375C34.7646 30.3866 33.6734 30.52 32.6095 30.7268C34.0539 25.7696 36.5441 22.5263 38.398 22.5263ZM22.7755 43.0369C23.923 40.0221 26.6917 37.4254 30.4786 36.0021C30.483 36.0003 30.488 35.9994 30.4924 35.9976C30.5004 35.9944 30.5094 35.9926 30.5174 35.9895C31.1828 35.7277 31.878 35.5331 32.5858 35.3739C32.6794 35.3526 32.7786 35.3372 32.8737 35.3178C33.5919 36.1347 34.2268 37.034 34.768 38.0102C34.7309 38.1061 34.6946 38.2108 34.658 38.3106C34.6303 38.386 34.6008 38.4638 34.5731 38.5425C34.5128 38.7144 34.4497 38.9058 34.3864 39.1027C34.3799 39.1228 34.3711 39.1423 34.3649 39.1624C34.3609 39.1753 34.3579 39.1884 34.354 39.2013C34.3416 39.2404 34.3305 39.2712 34.3177 39.3117C34.2052 39.6762 34.103 40.0232 34.0537 40.2773C33.8819 40.9919 33.7612 41.6801 33.6793 42.4027C33.6529 42.7602 33.6305 43.1192 33.6305 43.4484C33.6305 45.6279 34.2689 47.4715 35.4862 48.7893C35.6614 48.9762 35.837 49.1434 36.0094 49.2909C36.085 49.3556 36.1563 49.4013 36.2305 49.4576C36.3189 49.525 36.4098 49.6024 36.4951 49.6576C35.9294 52.3973 34.6777 54.934 32.8768 56.9991C32.613 56.941 32.3492 56.8842 32.0919 56.8152C31.7318 56.7186 31.372 56.6215 31.0257 56.5046C30.6202 56.3677 30.233 56.2084 29.8486 56.0449C29.5232 55.9064 29.1955 55.7713 28.886 55.6152C28.5166 55.4286 28.1715 55.2193 27.8267 55.0089C27.5417 54.835 27.2503 54.6669 26.9833 54.4775C26.6552 54.2449 26.3585 53.9897 26.0593 53.7359C25.8207 53.5337 25.5711 53.3389 25.352 53.1237C25.0695 52.8468 24.8271 52.5477 24.5786 52.2514C24.3924 52.0292 24.1895 51.8161 24.0234 51.5842C23.7914 51.2602 23.609 50.9157 23.4183 50.5743C23.2905 50.3456 23.1392 50.1257 23.0311 49.8899C22.8524 49.5006 22.7348 49.0934 22.612 48.6877C22.5496 48.4812 22.4562 48.2828 22.4088 48.0726C22.2688 47.4491 22.1905 46.8118 22.1905 46.1636C22.1905 45.0936 22.3929 44.042 22.7755 43.0369ZM48.2251 54.0965C48.9079 51.9168 49.3014 49.6121 49.3927 47.2326C49.5614 47.1107 49.7435 47 49.9034 46.874C50.3371 46.5525 50.7729 46.2069 51.2047 45.839C51.9066 45.2458 52.5859 44.6151 53.2365 43.9579C53.4902 44.6857 53.619 45.4225 53.619 46.1636C53.619 49.0298 51.5309 51.9299 48.2251 54.0965Z" fill="#1A050A"/>
<path d="M28.4762 46.1637C29.6334 46.1637 30.5715 45.1508 30.5715 43.9013C30.5715 42.6519 29.6334 41.639 28.4762 41.639C27.3191 41.639 26.381 42.6519 26.381 43.9013C26.381 45.1508 27.3191 46.1637 28.4762 46.1637Z" fill="#1A050A"/>
<defs>
<filter id="filter0_i_30_8" x="5.42603" y="0" width="70.1479" height="85" filterUnits="userSpaceOnUse" color-interpolation-filters="sRGB">
<feFlood flood-opacity="0" result="BackgroundImageFix"/>
<feBlend mode="normal" in="SourceGraphic" in2="BackgroundImageFix" result="shape"/>
<feColorMatrix in="SourceAlpha" type="matrix" values="0 0 0 0 0 0 0 0 0 0 0 0 0 0 0 0 0 0 127 0" result="hardAlpha"/>
<feOffset dy="5"/>
<feGaussianBlur stdDeviation="2"/>
<feComposite in2="hardAlpha" operator="arithmetic" k2="-1" k3="1"/>
<feColorMatrix type="matrix" values="0 0 0 0 0.101961 0 0 0 0 0.0196078 0 0 0 0 0.0392157 0 0 0 0.3 0"/>
<feBlend mode="normal" in2="shape" result="effect1_innerShadow_30_8"/>
</filter>
</defs>
</svg>
