<svg width="1354" height="464" viewBox="0 0 1354 464" fill="none" xmlns="http://www.w3.org/2000/svg">
<g style="mix-blend-mode:hard-light">
<path d="M1120.68 0.0115199C1119.8 -0.127743 1119.18 1.00269 1119.18 3.02017C1119.18 5.70928 1120.29 6.80748 1121.63 5.46285C1122.98 4.11822 1122.98 1.92211 1121.63 0.577479C1121.3 0.240986 1120.97 0.0550667 1120.68 0.0119446L1120.68 0.0115199ZM1118.34 10.814C1117.83 10.7928 1117.42 10.8988 1117.17 11.1448C1114.75 13.5633 1124.96 72.4688 1135.78 118.553C1146.47 164.052 1158.09 222.654 1161.25 246.921C1164.79 274.212 1166.56 278.094 1175.38 278.039C1187.89 277.955 1193.56 272.508 1195.03 259.192C1195.78 252.441 1196.99 241.144 1197.72 234.084C1198.45 227.024 1199.94 218.772 1201.02 215.746C1204.05 207.251 1207.64 188.947 1207.67 181.82C1207.68 178.29 1208.98 175.402 1210.56 175.402C1214.4 175.402 1222.8 146.79 1220.19 142.579C1219.06 140.749 1221.07 138.32 1224.64 137.185C1228.22 136.05 1232.79 131.439 1234.79 126.934C1240.38 114.346 1260.11 110.217 1275.38 118.438C1282.18 122.1 1286.86 126.522 1285.79 128.266C1284.71 130.011 1286.95 135.964 1290.77 141.497C1296.55 149.885 1305 173.851 1316.23 213.662C1317.33 217.557 1319.26 236.465 1320.52 255.682C1322.71 289.054 1323.22 290.728 1331.99 292.953C1345.53 296.393 1354 290.626 1354 277.967C1354 271.743 1352.04 267.064 1349.41 267.036C1346.07 267.001 1345.97 266.247 1349.05 264.285C1352.08 262.352 1352.42 253.303 1350.25 232.25C1342.81 160.005 1324.92 115.171 1290.64 82.7932C1270.83 64.0881 1264.24 62.2704 1247.52 70.9092C1241.63 73.9554 1234.77 76.0177 1232.28 75.4938C1229.79 74.97 1227.68 76.9937 1227.58 79.9924C1227.48 82.991 1222.98 87.563 1217.57 90.1571C1207.38 95.0391 1183.52 136.669 1187.36 142.873C1188.46 144.655 1186.89 148.593 1183.86 151.619C1177.18 158.301 1175.19 155.48 1170.4 132.55C1168.38 122.834 1166.19 113.235 1165.55 111.218C1164.91 109.2 1163.08 100.948 1161.48 92.8793C1159.88 84.8104 1157.6 76.5582 1156.41 74.5409C1155.22 72.5239 1153.76 67.7007 1153.15 63.8246C1152.55 59.9485 1150.45 54.8461 1148.49 52.4849C1146.53 50.1238 1145.78 47.3365 1146.83 46.2886C1147.88 45.2405 1147.01 39.8462 1144.91 34.3041C1141.69 25.86 1140.17 24.9713 1135.54 28.817C1127.54 35.4525 1124.23 29.9661 1131.43 22.0118C1134.78 18.3104 1137.49 13.7553 1137.47 11.897C1137.45 10.0386 1135.91 10.8919 1134.08 13.7882C1131.29 18.1888 1129.78 18.2525 1124.88 14.1819C1122.45 12.1728 1119.89 10.8995 1118.34 10.8151L1118.34 10.814ZM1138.54 39.883C1140.3 39.883 1140.8 41.0433 1139.36 43.3645C1138.11 45.3817 1134.3 47.0027 1130.89 46.9749C1125.54 46.9395 1125.45 46.4284 1130.19 43.3645C1133.78 41.0438 1136.79 39.883 1138.54 39.883H1138.54ZM1251.27 83.9237C1252.15 83.9237 1253.05 84.2616 1253.72 84.9343C1255.06 86.2788 1253.96 87.377 1251.27 87.377C1248.58 87.377 1247.48 86.2792 1248.82 84.9343C1249.5 84.2621 1250.38 83.9237 1251.27 83.9237ZM1254.94 105.93C1255.82 105.93 1256.71 106.268 1257.39 106.94C1258.73 108.285 1257.63 109.383 1254.94 109.383C1252.25 109.383 1251.15 108.285 1252.49 106.94C1253.17 106.268 1254.05 105.93 1254.94 105.93ZM523.978 121.281C523.273 121.267 522.545 121.288 521.785 121.352C515.711 121.81 512.934 126.569 507.905 145.141C504.447 157.911 500.228 169.215 498.531 170.263C496.834 171.311 495.443 177.135 495.443 183.2C495.443 189.266 493.765 197.354 491.716 201.181C478.516 225.835 479.436 324.968 492.956 334.95C495.688 336.967 497.224 340.679 496.374 343.202C495.392 346.118 496.946 346.982 500.638 345.566C504.424 344.114 506.45 345.348 506.45 349.112C506.45 353.008 508.451 354.124 512.591 352.536C517.172 350.779 518.158 351.679 516.468 356.082C515.222 359.328 516.173 362.781 518.582 363.761L518.589 363.768C525.221 366.465 525.408 366.405 522.967 362.457C521.72 360.44 523.276 358.789 526.422 358.789C529.568 358.789 532.14 360.573 532.14 362.751C532.14 368.679 554.593 362.946 563.563 354.728C567.729 350.911 572.842 347.786 574.922 347.786C577.001 347.786 581.653 344.524 585.263 340.537C588.872 336.55 593.128 334.094 594.722 335.078C598.365 337.329 613.452 316.594 610.394 313.538C609.157 312.302 610.235 308.769 612.788 305.694C616.395 301.342 616.421 300.107 612.912 300.107C610.206 300.107 609.344 297.657 610.755 293.982C612.052 290.605 610.994 286.517 608.397 284.87C601.71 280.628 589.964 281.051 592.675 285.436C593.922 287.453 593.532 289.103 591.8 289.103C590.069 289.103 582.076 295.42 574.042 303.136C559.814 316.803 541.564 325.78 528.014 325.78C517.385 325.78 509.306 305.877 510.723 283.172C511.597 269.158 510.622 263.419 507.369 263.422C504.846 263.425 502.783 261.779 502.783 259.762C502.783 257.745 505.053 256.094 507.827 256.094C511.899 256.094 515.562 247.098 517.516 232.29C517.643 231.32 520.055 223.995 522.869 216.022C526.734 205.073 526.917 201.077 523.635 199.682C520.75 198.457 521.524 196.432 525.936 193.651C529.741 191.252 532.142 186.068 531.554 181.516C530.989 177.146 531.918 171.339 533.618 168.608C535.318 165.877 537.214 156.15 537.832 146.996C538.992 129.783 534.553 121.501 523.98 121.286L523.978 121.281ZM110.844 128.38C98.3063 128.401 86.2891 130.198 84.1147 134.082C82.3854 137.171 76.3436 140.542 70.6854 141.568C40.3888 147.059 27.7219 196.443 49.2874 225C59.125 238.027 111.885 267.837 125.105 267.837C131.875 267.837 159.975 283.186 160.477 287.157C160.672 288.703 159.77 294.809 158.47 300.724C156.423 310.043 153.323 312.29 135.259 317.565C107.075 325.796 78.3407 322.973 53.6802 309.557C43.1943 303.852 32.9032 295.431 30.8132 290.846C28.7231 286.26 25.6278 282.508 23.9337 282.508C22.2396 282.508 20.8523 280.032 20.8523 277.006C20.8523 273.98 18.3757 271.505 15.3487 271.505C12.3217 271.505 9.84511 273.155 9.84511 275.172C9.84511 277.189 7.4004 278.84 4.41321 278.84C0.279137 278.84 -0.671008 282.374 0.414523 293.639C2.02855 310.39 17.0228 332.585 30.0894 337.551C34.7731 339.331 40.1449 343.527 42.021 346.878C44.1295 350.644 51.9463 353.706 62.4946 354.894C71.8802 355.951 79.5571 358.302 79.5571 360.116C79.5571 367.406 145.154 357.633 148.122 349.901C149.187 347.127 152.955 344.858 156.5 344.858C165.121 344.858 181.599 327.936 188.081 312.429C197.57 289.726 180.018 249.903 162.913 255.33C157.327 257.102 156.32 256.17 158.012 250.781C160.736 242.105 142.393 231.897 137.61 239.427C135.44 242.842 134.692 242.604 134.65 238.482C134.602 233.671 98.8 216.49 88.8229 216.49C84.0144 216.49 68.5359 201.209 68.6718 196.597C68.9582 186.851 87.6619 171.676 101.715 169.792C109.709 168.72 116.248 166.299 116.248 164.412C116.248 162.511 119.932 162.169 124.503 163.639C129.043 165.098 136.564 166.721 141.214 167.249C148.137 168.035 148.885 167.263 145.349 163.008C141.797 158.73 142.906 157.77 151.577 157.578C161.066 157.368 161.345 157.036 154.371 154.219C147.73 151.536 140.281 140.684 142.01 136.21C143.952 131.185 126.965 128.336 110.844 128.38V128.38ZM360.354 128.667C358.681 128.596 356.722 129.28 354.75 130.916C352.211 133.018 346.922 133.933 342.991 132.936C338.666 131.84 328.493 135.988 317.236 143.445C307.005 150.222 295.781 156.863 292.29 158.201C285.408 160.841 266.62 199.6 269.76 204.678C270.817 206.386 270.089 208.335 268.148 209.011C260.604 211.641 253.285 275.558 253.285 338.827C253.285 392.618 257.922 454.136 262.537 461.6C264.694 465.09 289.976 464.641 289.976 461.114C289.976 459.296 288.325 457.812 286.307 457.812C284.289 457.812 282.638 456.161 282.638 454.144C282.638 452.127 284.96 450.476 287.797 450.476C292.554 450.476 296.567 431.699 296.812 408.298C296.856 404.264 297.589 391.06 298.439 378.957C299.288 366.854 300.205 352.489 300.481 347.036C300.892 338.916 303.4 336.455 314.348 333.433C323.221 330.986 330.003 330.97 334.527 333.398C338.275 335.404 341.36 335.748 341.371 334.165C341.384 332.581 346.337 328.475 352.378 325.039C358.42 321.602 363.357 315.904 363.357 312.381C363.357 307.6 364.418 307.037 367.527 310.146C370.637 313.255 373.185 312.814 377.581 308.42C382.399 303.604 382.549 302.224 378.398 300.841C375.311 299.812 377.94 297.215 385.113 294.2C396.375 289.467 398.264 279.871 387.091 284.157C383.76 285.435 381.702 284.019 381.702 280.447C381.702 277.262 383.81 275.471 386.396 276.464C400.615 281.918 412.233 249.462 411.183 207.208C410.587 183.197 407.239 171.889 398.6 164.722C395.362 162.036 392.709 156.74 392.709 152.952C392.709 149.165 390.319 146.068 387.392 146.068C384.465 146.068 380.493 143.256 378.57 139.822C375.483 134.308 374.311 134.2 368.531 138.905C362.683 143.665 362.236 143.56 364.346 137.931C366.336 132.619 364.036 128.827 360.354 128.676L360.354 128.667ZM107.075 139.47C108.084 139.47 108.91 140.295 108.91 141.303C108.91 142.312 108.084 143.137 107.075 143.137C106.066 143.137 105.24 142.312 105.24 141.303C105.24 140.294 106.066 139.47 107.075 139.47ZM346.846 142.392C347.855 142.392 348.681 143.217 348.681 144.226C348.681 145.235 347.856 146.06 346.846 146.06C345.836 146.06 345.012 145.235 345.012 144.226C345.012 143.217 345.836 142.392 346.846 142.392ZM330.335 142.607C331.222 142.607 332.114 142.945 332.786 143.617C334.131 144.962 333.026 146.06 330.335 146.06C327.645 146.06 326.547 144.962 327.892 143.617C328.564 142.945 329.449 142.607 330.335 142.607ZM154.221 143.789C153.459 143.86 152.938 144.957 152.938 146.805C152.938 149.494 154.044 150.6 155.389 149.255C156.734 147.911 156.734 145.707 155.389 144.363C154.968 143.943 154.567 143.759 154.221 143.79L154.221 143.789ZM376.413 149.728C377.303 149.728 378.033 151.378 378.033 153.396C378.033 155.413 376.286 157.063 374.149 157.063C372.012 157.063 371.283 155.413 372.529 153.396C373.777 151.378 375.523 149.728 376.413 149.728ZM136.642 151.669C137.619 151.725 138.262 152.449 138.262 153.711C138.262 155.728 136.611 158.396 134.593 159.642C132.575 160.888 130.924 160.263 130.924 158.245C130.924 156.228 132.575 153.553 134.593 152.307C135.35 151.839 136.057 151.634 136.642 151.669V151.669ZM97.9024 154.355C98.789 154.355 99.6805 154.693 100.353 155.366C101.698 156.71 100.593 157.809 97.9024 157.809C95.2117 157.809 94.1134 156.711 95.4587 155.366C96.1314 154.694 97.0157 154.355 97.9024 154.355ZM317.709 157.063C318.598 157.063 319.328 158.713 319.328 160.731C319.328 162.748 317.581 164.398 315.444 164.398C313.308 164.398 312.578 162.748 313.825 160.731C315.072 158.713 316.818 157.063 317.709 157.063ZM1168.71 157.063C1169.72 157.063 1170.55 157.888 1170.55 158.897C1170.55 159.906 1169.72 160.731 1168.71 160.731C1167.7 160.731 1166.88 159.906 1166.88 158.897C1166.88 157.888 1167.7 157.063 1168.71 157.063ZM822.719 161.282C817.828 161.378 811.206 163.241 799.924 166.59C778.265 173.02 754.469 187.372 758.611 191.512C760.055 192.956 758.807 195.841 755.838 197.923C751.611 200.888 752.231 201.317 758.697 199.9C767.814 197.903 767.901 197.998 764.724 206.275C763.499 209.466 760.197 212.078 757.386 212.078C754.575 212.078 752.276 213.76 752.276 215.817C752.276 222.064 796.607 215.761 805.692 208.231C808.425 205.965 812.55 205.279 814.858 206.705C823.586 212.097 808.665 275.963 796.993 283.175C792.565 285.91 778.798 278.962 767.224 268.153C753.719 255.539 731.709 253.887 709.036 263.783C698.57 268.351 690.799 272.882 691.766 273.848C692.732 274.814 690.204 277.927 686.147 280.768C682.09 283.608 679.609 287.283 680.629 288.934C681.65 290.585 680.029 293.977 677.025 296.47C671.026 301.447 669.147 336.779 674.882 336.779C676.712 336.779 677.349 340.079 676.294 344.114C675.238 348.148 676.13 351.449 678.279 351.449C680.428 351.449 686.677 355.604 692.16 360.683C697.643 365.762 709.695 372.246 718.947 375.096C739.71 381.49 735.118 381.454 763.19 375.439C776.255 372.64 787.539 368.572 788.264 366.399C788.989 364.226 792.332 362.407 795.696 362.337C804.039 362.178 815.887 352.753 813.202 348.412C812.003 346.472 813.491 343.938 816.506 342.781C819.521 341.625 821.988 337.65 821.988 333.956C821.988 330.262 823.308 325.672 824.919 323.755C827.669 320.484 832.621 306.143 844.49 267.093C847.249 258.015 849.506 234.655 849.506 215.18C849.506 181.103 849.122 179.412 839.23 170.251C832.437 163.96 829.008 161.161 822.719 161.282V161.282ZM90.5642 161.689C91.4509 161.689 92.3424 162.027 93.0151 162.7C94.3603 164.045 93.2549 165.143 90.5642 165.143C87.8736 165.143 86.7753 164.045 88.1206 162.7C88.7933 162.028 89.6775 161.689 90.5642 161.689ZM1330.15 164.397C1331.16 164.397 1331.99 165.222 1331.99 166.231C1331.99 167.24 1331.16 168.065 1330.15 168.065C1329.14 168.065 1328.32 167.24 1328.32 166.231C1328.32 165.222 1329.14 164.397 1330.15 164.397ZM982.215 166.775C971.025 166.719 944.301 177.882 928.606 189.906C914.559 200.668 905.305 220.867 908.261 234.319C911.907 250.913 929.542 264.407 951.286 267.249C971.526 269.894 989.135 266.017 985.268 259.764C984.019 257.743 984.744 256.089 986.88 256.089C989.017 256.089 990.764 258.565 990.764 261.59C990.764 265.061 994.49 267.225 1000.85 267.45C1018.78 268.08 1040.19 266.456 1043.86 264.191C1047.8 261.755 1075.95 263.066 1078.74 265.817C1081.81 268.838 1056.1 289.098 1049.19 289.098C1045.55 289.098 1041.64 290.589 1040.52 292.407C1037.45 297.367 997.624 301.602 952.447 301.777L912.295 301.935L911.88 317.967C911.337 338.823 917.491 344.883 937.95 343.626C946.686 343.089 954.992 343.807 956.403 345.216C960.949 349.76 999.628 347.899 1009.69 342.652C1016.3 339.202 1020.64 338.765 1023.18 341.297C1025.71 343.83 1032.01 342.668 1042.78 337.68C1051.5 333.636 1061.53 329.355 1065.06 328.167C1068.59 326.979 1071.48 324.206 1071.48 322.006C1071.48 319.806 1073.09 318.997 1075.05 320.208C1077.01 321.42 1082.82 319.655 1087.96 316.29C1096.71 310.559 1096.89 309.859 1090.81 305.251C1084.86 300.737 1085.12 300.326 1093.99 300.215C1107.95 300.047 1115.51 286.391 1115.51 261.375C1115.51 244.149 1114.36 240.43 1108.52 238.904C1104.67 237.897 1100.76 234.172 1099.83 230.63C1098.11 224.055 1082.48 219.192 1064.6 219.67C1057.48 219.859 1056.58 220.578 1061.14 222.421C1064.53 223.792 1041.8 225.398 1010.63 225.988C962.284 226.904 953.648 226.23 951.795 221.404C950.601 218.292 946.991 215.744 943.776 215.744C939.121 215.744 938.858 214.816 942.486 211.188C946.115 207.562 947.649 207.615 950.018 211.446C952.337 215.197 956.054 214.182 966.887 206.833C974.53 201.648 982.206 197.405 983.942 197.405C985.679 197.405 987.096 195.712 987.096 193.645C987.096 189.898 969.391 181.015 964.164 182.14C958.828 183.29 961.489 176.157 967.217 173.96C976.106 170.55 980.462 171.298 977.701 175.765C976.081 178.385 978.135 178.228 983.57 175.321C990.893 171.403 991.192 170.43 985.978 167.513C985.09 167.017 983.814 166.784 982.215 166.775V166.775ZM353.783 170.493C356.29 170.529 358.838 170.792 361.522 171.238C374.145 173.337 376.772 175.434 380.283 186.245C382.529 193.158 383.733 207.87 382.963 218.939C382.029 232.392 383.113 240.178 386.224 242.421C389.534 244.806 389.05 245.194 384.554 243.753C379.954 242.278 376.543 245.274 372.035 254.77C368.628 261.947 360.156 273.847 353.21 281.21C346.263 288.573 340.613 295.423 340.655 296.432C340.697 297.441 340.047 298.952 339.207 299.792C338.366 300.632 337.673 299.207 337.673 296.619C337.673 293.882 334.991 292.679 331.253 293.753C327.721 294.768 322.355 296.599 319.328 297.815C308.666 302.099 303.404 294.038 302.459 271.983C301.955 260.216 301.08 241.509 300.51 230.414C299.028 201.553 307.658 185.483 329.676 176.109C339.099 172.096 346.26 170.357 353.783 170.492V170.493ZM1186.72 172.392C1187.01 172.427 1187.34 172.621 1187.67 172.957C1189.02 174.302 1189.02 176.498 1187.67 177.843C1186.33 179.187 1185.22 178.089 1185.22 175.4C1185.22 173.383 1185.84 172.26 1186.72 172.391L1186.72 172.392ZM992.814 175.4C991.924 175.4 990.177 177.051 988.93 179.068C987.683 181.085 988.412 182.736 990.549 182.736C992.687 182.736 994.433 181.085 994.433 179.068C994.433 177.051 993.705 175.4 992.814 175.4ZM70.6066 179.813C71.4966 179.813 72.219 181.463 72.219 183.481C72.219 185.498 70.472 187.148 68.335 187.148C66.1979 187.148 65.4682 185.498 66.7154 183.481C67.9626 181.463 69.7167 179.813 70.6066 179.813ZM944.901 182.736C945.911 182.736 946.736 183.561 946.736 184.569C946.736 185.579 945.911 186.403 944.901 186.403C943.892 186.403 943.067 185.578 943.067 184.569C943.067 183.56 943.892 182.736 944.901 182.736ZM59.3773 190.816C60.3863 190.816 61.2118 191.641 61.2118 192.65C61.2118 193.659 60.3863 194.484 59.3773 194.484C58.3683 194.484 57.5428 193.659 57.5428 192.65C57.5428 191.641 58.3683 190.816 59.3773 190.816ZM394.544 193.739C395.553 193.739 396.378 194.564 396.378 195.572C396.378 196.582 395.553 197.406 394.544 197.406C393.534 197.406 392.709 196.581 392.709 195.572C392.709 194.563 393.534 193.739 394.544 193.739ZM963.247 193.739C964.256 193.739 965.081 194.564 965.081 195.572C965.081 196.582 964.256 197.406 963.247 197.406C962.237 197.406 961.412 196.581 961.412 195.572C961.412 194.563 962.237 193.739 963.247 193.739ZM943.067 193.953C943.953 193.953 944.845 194.291 945.518 194.964C946.863 196.309 945.758 197.407 943.067 197.407C940.377 197.407 939.278 196.309 940.623 194.964C941.296 194.292 942.18 193.953 943.067 193.953ZM1161.04 194.397C1161.33 194.433 1161.66 194.627 1161.99 194.963C1163.34 196.308 1163.34 198.504 1161.99 199.849C1160.65 201.193 1159.54 200.095 1159.54 197.406C1159.54 195.389 1160.16 194.265 1161.04 194.397L1161.04 194.397ZM44.1493 198.803C44.4959 198.782 44.897 198.955 45.3173 199.375C46.6626 200.72 46.6626 202.923 45.3173 204.268C43.9719 205.613 42.8665 204.508 42.8665 201.818C42.8665 199.969 43.387 198.871 44.1493 198.802L44.1493 198.803ZM955.572 201.733C955.864 201.768 956.189 201.963 956.524 202.299C957.87 203.643 957.87 205.839 956.524 207.184C955.179 208.529 954.074 207.431 954.074 204.741C954.074 202.724 954.693 201.601 955.571 201.733L955.572 201.733ZM919.218 204.742C920.228 204.742 921.053 205.567 921.053 206.576C921.053 207.585 920.227 208.409 919.218 208.409C918.209 208.409 917.383 207.584 917.383 206.576C917.383 205.566 918.209 204.742 919.218 204.742ZM517.457 208.409C519.475 208.409 521.126 210.06 521.126 212.077C521.126 214.094 519.475 215.745 517.457 215.745C515.439 215.745 513.788 214.094 513.788 212.077C513.788 210.06 515.439 208.409 517.457 208.409ZM70.3845 227.493C71.3934 227.493 72.219 228.318 72.219 229.326C72.219 230.336 71.3935 231.16 70.3845 231.16C69.3755 231.16 68.5499 230.335 68.5499 229.326C68.5499 228.317 69.3754 227.493 70.3845 227.493ZM92.3988 227.493C93.4078 227.493 94.2333 228.318 94.2333 229.326C94.2333 230.336 93.4078 231.16 92.3988 231.16C91.3898 231.16 90.5642 230.335 90.5642 229.326C90.5642 228.317 91.3897 227.493 92.3988 227.493ZM114.793 229.556C116.13 229.431 115.849 231.614 114.112 236.139C112.84 239.453 109.207 242.163 106.043 242.163C101.285 242.163 101.513 240.977 107.355 235.301C111.173 231.591 113.613 229.671 114.793 229.556H114.793ZM999.937 234.083C1000.95 234.083 1001.77 234.908 1001.77 235.917C1001.77 236.926 1000.95 237.751 999.937 237.751C998.928 237.751 998.103 236.926 998.103 235.917C998.103 234.908 998.928 234.083 999.937 234.083ZM1074.71 239.599C1075.38 239.606 1076.13 239.767 1076.97 240.086C1079.98 241.242 1081.54 243.667 1080.42 245.473C1077.22 250.651 1071.48 249.299 1071.48 243.367C1071.48 240.912 1072.7 239.575 1074.71 239.599V239.599ZM1010.94 241.418C1011.95 241.418 1012.78 242.243 1012.78 243.252C1012.78 244.261 1011.95 245.086 1010.94 245.086C1009.93 245.086 1009.11 244.261 1009.11 243.252C1009.11 242.243 1009.94 241.418 1010.94 241.418ZM1054.97 241.418C1055.98 241.418 1056.81 242.243 1056.81 243.252C1056.81 244.261 1055.98 245.086 1054.97 245.086C1053.96 245.086 1053.14 244.261 1053.14 243.252C1053.14 242.243 1053.96 241.418 1054.97 241.418ZM1038.46 241.633C1039.35 241.633 1040.24 241.971 1040.91 242.644C1042.26 243.988 1041.15 245.086 1038.46 245.086C1035.77 245.086 1034.67 243.988 1036.02 242.644C1036.69 241.972 1037.58 241.633 1038.46 241.633ZM96.0678 242.163C97.0768 242.163 97.9024 242.988 97.9024 243.997C97.9024 245.006 97.0769 245.831 96.0678 245.831C95.0588 245.831 94.2333 245.006 94.2333 243.997C94.2333 242.988 95.0588 242.163 96.0678 242.163ZM143.765 245.831C144.774 245.831 145.6 246.656 145.6 247.664C145.6 248.674 144.775 249.498 143.765 249.498C142.757 249.498 141.931 248.673 141.931 247.664C141.931 246.655 142.756 245.831 143.765 245.831ZM1007.28 248.753C1008.28 248.753 1009.11 249.578 1009.11 250.587C1009.11 251.596 1008.28 252.421 1007.28 252.421C1006.27 252.421 1005.44 251.596 1005.44 250.587C1005.44 249.578 1006.27 248.753 1007.28 248.753ZM943.067 252.636C943.953 252.636 944.845 252.974 945.518 253.646C946.863 254.991 945.758 256.089 943.067 256.089C940.377 256.089 939.278 254.991 940.623 253.646C941.296 252.974 942.18 252.636 943.067 252.636ZM140.096 253.165C141.105 253.165 141.931 253.99 141.931 254.998C141.931 256.008 141.105 256.832 140.096 256.832C139.087 256.832 138.262 256.007 138.262 254.998C138.262 253.989 139.087 253.165 140.096 253.165ZM1040.3 256.087C1041.31 256.087 1042.13 256.912 1042.13 257.921C1042.13 258.93 1041.31 259.755 1040.3 259.755C1039.29 259.755 1038.46 258.93 1038.46 257.921C1038.46 256.912 1039.29 256.087 1040.3 256.087ZM132.758 256.834C133.767 256.834 134.593 257.659 134.593 258.668C134.593 259.677 133.767 260.501 132.758 260.501C131.749 260.501 130.924 259.676 130.924 258.668C130.924 257.658 131.749 256.834 132.758 256.834ZM723.225 261.554C725.198 261.338 726.593 262.072 726.593 263.539C726.593 265.493 724.116 267.092 721.089 267.092C718.062 267.092 715.586 266.445 715.586 265.652C715.586 264.859 718.062 263.261 721.089 262.099C721.847 261.809 722.567 261.626 723.225 261.555V261.554ZM372.529 270.759C373.539 270.759 374.364 271.584 374.364 272.593C374.364 273.602 373.539 274.427 372.529 274.427C371.52 274.427 370.695 273.602 370.695 272.593C370.695 271.584 371.52 270.759 372.529 270.759ZM746.773 270.759C747.782 270.759 748.607 271.584 748.607 272.593C748.607 273.602 747.782 274.427 746.773 274.427C745.763 274.427 744.938 273.602 744.938 272.593C744.938 271.584 745.763 270.759 746.773 270.759ZM1102.67 285.43C1103.68 285.43 1104.5 286.255 1104.5 287.264C1104.5 288.273 1103.68 289.098 1102.67 289.098C1101.66 289.098 1100.84 288.273 1100.84 287.264C1100.84 286.255 1101.66 285.43 1102.67 285.43ZM733.931 292.773C734.574 292.768 735.219 293.686 736.074 295.516C737.251 298.038 743.03 300.101 748.915 300.101C754.801 300.101 759.614 301.751 759.614 303.768C759.614 305.786 761.983 307.436 764.874 307.436C773.107 307.436 775.989 321.985 769.117 328.855V328.862C764.767 333.209 755.881 334.856 735.823 335.036C707.714 335.29 701.988 332.289 704.349 318.539C705.581 311.368 722.593 295.795 726.536 298.231C728.242 299.284 730.6 298.078 731.781 295.545C732.638 293.703 733.287 292.776 733.931 292.772V292.773ZM601.845 292.98C602.731 292.98 603.623 293.318 604.296 293.991C605.641 295.335 604.536 296.434 601.845 296.434C599.155 296.434 598.056 295.336 599.401 293.991C600.074 293.319 600.958 292.98 601.845 292.98ZM1078.82 303.983C1079.71 303.983 1080.6 304.321 1081.27 304.994C1082.62 306.339 1081.51 307.437 1078.82 307.437C1076.13 307.437 1075.03 306.339 1076.38 304.994C1077.05 304.322 1077.94 303.983 1078.82 303.983ZM180.549 305.738C181.069 305.76 181.66 305.957 182.291 306.348C184.309 307.594 185.96 309.34 185.96 310.23C185.96 311.12 184.309 311.849 182.291 311.849C180.273 311.849 178.621 310.103 178.621 307.967C178.621 306.499 179.406 305.692 180.549 305.739V305.738ZM779.794 307.436C780.804 307.436 781.629 308.261 781.629 309.27C781.629 310.279 780.803 311.104 779.794 311.104C778.785 311.104 777.96 310.279 777.96 309.27C777.96 308.261 778.785 307.436 779.794 307.436ZM489.939 311.104C490.948 311.104 491.774 311.929 491.774 312.938C491.774 313.947 490.948 314.771 489.939 314.771C488.93 314.771 488.104 313.946 488.104 312.938C488.104 311.928 488.93 311.104 489.939 311.104ZM992.599 311.104C993.609 311.104 994.433 311.929 994.433 312.938C994.433 313.947 993.608 314.771 992.599 314.771C991.589 314.771 990.764 313.946 990.764 312.938C990.764 311.928 991.59 311.104 992.599 311.104ZM330.335 314.771C332.353 314.771 334.004 316.422 334.004 318.439C334.004 320.456 332.353 322.107 330.335 322.107C328.317 322.107 326.666 320.456 326.666 318.439C326.666 316.422 328.317 314.771 330.335 314.771ZM596.341 318.439C597.351 318.439 598.176 319.264 598.176 320.273C598.176 321.282 597.351 322.107 596.341 322.107C595.332 322.107 594.507 321.282 594.507 320.273C594.507 319.264 595.332 318.439 596.341 318.439ZM957.743 318.654C958.629 318.654 959.521 318.992 960.194 319.664C961.539 321.009 960.434 322.107 957.743 322.107C955.053 322.107 953.954 321.009 955.299 319.664C955.972 318.992 956.856 318.654 957.743 318.654ZM924.722 325.989C925.608 325.989 926.5 326.327 927.172 327C928.517 328.344 927.413 329.443 924.722 329.443C922.031 329.443 920.933 328.345 922.278 327C922.951 326.328 923.835 325.989 924.722 325.989ZM165.78 326.519C166.789 326.519 167.614 327.344 167.614 328.353C167.614 329.362 166.789 330.186 165.78 330.186C164.771 330.186 163.945 329.361 163.945 328.353C163.945 327.343 164.771 326.519 165.78 326.519ZM61.2118 326.734C62.0985 326.734 62.99 327.072 63.6626 327.744C65.0079 329.089 63.9025 330.187 61.2118 330.187C58.5212 330.187 57.4229 329.089 58.7682 327.744C59.4409 327.072 60.3251 326.734 61.2118 326.734ZM154.221 327.17C154.567 327.149 154.969 327.323 155.389 327.742C156.734 329.087 156.734 331.29 155.389 332.635C154.043 333.98 152.938 332.875 152.938 330.185C152.938 328.336 153.459 327.238 154.221 327.169L154.221 327.17ZM981.592 329.442C982.601 329.442 983.426 330.267 983.426 331.276C983.426 332.285 982.601 333.109 981.592 333.109C980.582 333.109 979.757 332.284 979.757 331.276C979.757 330.266 980.583 329.442 981.592 329.442ZM521.126 329.657C522.013 329.657 522.904 329.995 523.577 330.667C524.922 332.012 523.817 333.11 521.126 333.11C518.436 333.11 517.337 332.012 518.682 330.667C519.355 329.995 520.239 329.657 521.126 329.657ZM951.903 330.101C952.195 330.136 952.52 330.33 952.855 330.666C954.201 332.011 954.201 334.207 952.855 335.552C951.51 336.896 950.404 335.798 950.404 333.109C950.404 331.092 951.026 329.968 951.902 330.1L951.903 330.101ZM129.089 330.185C130.098 330.185 130.924 331.01 130.924 332.019C130.924 333.029 130.098 333.853 129.089 333.853C128.08 333.853 127.255 333.028 127.255 332.019C127.255 331.01 128.08 330.185 129.089 330.185ZM1025.62 333.108C1026.63 333.108 1027.45 333.933 1027.45 334.942C1027.45 335.951 1026.63 336.776 1025.62 336.776C1024.61 336.776 1023.79 335.951 1023.79 334.942C1023.79 333.933 1024.61 333.108 1025.62 333.108ZM1001.77 333.323C1002.66 333.323 1003.55 333.661 1004.22 334.334C1005.57 335.678 1004.46 336.776 1001.77 336.776C999.082 336.776 997.983 335.678 999.328 334.334C1000 333.661 1000.89 333.323 1001.77 333.323ZM966.701 338.008C967.286 337.951 967.993 338.146 968.75 338.609C970.768 339.855 972.419 341.601 972.419 342.491C972.419 343.381 970.768 344.11 968.75 344.11C966.732 344.11 965.081 342.364 965.081 340.228C965.081 338.893 965.726 338.104 966.701 338.007V338.008ZM550.263 340.443C552.4 340.443 554.147 342.094 554.147 344.111C554.147 346.128 553.418 347.779 552.528 347.779C551.638 347.779 549.891 346.128 548.644 344.111C547.397 342.094 548.126 340.443 550.263 340.443ZM537.637 344.111C538.646 344.111 539.471 344.936 539.471 345.945C539.471 346.954 538.646 347.779 537.637 347.779C536.627 347.779 535.802 346.954 535.802 345.945C535.802 344.936 536.628 344.111 537.637 344.111ZM280.803 358.782C281.813 358.782 282.638 359.607 282.638 360.616C282.638 361.625 281.813 362.449 280.803 362.449C279.794 362.449 278.969 361.624 278.969 360.616C278.969 359.606 279.794 358.782 280.803 358.782ZM726.593 362.664C727.479 362.664 728.371 363.002 729.044 363.675C730.389 365.019 729.284 366.117 726.593 366.117C723.903 366.117 722.804 365.019 724.149 363.675C724.822 363.002 725.706 362.664 726.593 362.664ZM757.78 366.117C758.789 366.117 759.614 366.942 759.614 367.951C759.614 368.96 758.789 369.785 757.78 369.785C756.77 369.785 755.945 368.96 755.945 367.951C755.945 366.942 756.771 366.117 757.78 366.117Z" fill="#FFDF82"/>
</g>
</svg>
